<?xml version="1.0" encoding="UTF-8" standalone="no"?>
<svg
   xmlns:dc="http://purl.org/dc/elements/1.1/"
   xmlns:cc="http://creativecommons.org/ns#"
   xmlns:rdf="http://www.w3.org/1999/02/22-rdf-syntax-ns#"
   xmlns:svg="http://www.w3.org/2000/svg"
   xmlns="http://www.w3.org/2000/svg"
   xmlns:sodipodi="http://sodipodi.sourceforge.net/DTD/sodipodi-0.dtd"
   xmlns:inkscape="http://www.inkscape.org/namespaces/inkscape"
   width="2000"
   height="2000"
   viewBox="0 0 529.16665 529.16668"
   version="1.1"
   id="svg51"
   inkscape:version="1.0.2-2 (e86c870879, 2021-01-15)"
   sodipodi:docname="newdrawing.svg.2021_06_18_01_06_33.0.svg"
   inkscape:export-filename="C:\Users\Prashant Mastai\Documents\newdrawing.png"
   inkscape:export-xdpi="96"
   inkscape:export-ydpi="96">
  <defs
     id="defs45">
    <inkscape:path-effect
       effect="fill_between_strokes"
       id="path-effect963"
       is_visible="true"
       lpeversion="1"
       linkedpath=""
       secondpath=""
       reversesecond="false"
       join="true"
       close="true" />
    <inkscape:path-effect
       effect="bend_path"
       id="path-effect957"
       is_visible="true"
       lpeversion="1"
       bendpath="m 1671.511,282.27721 h 179.3751"
       prop_scale="1"
       scale_y_rel="false"
       vertical="false"
       hide_knot="false" />
    <inkscape:path-effect
       effect="bounding_box"
       id="path-effect918"
       is_visible="true"
       lpeversion="1"
       linkedpath=""
       visualbounds="false" />
  </defs>
  <sodipodi:namedview
     id="base"
     pagecolor="#ffffff"
     bordercolor="#666666"
     borderopacity="1.0"
     inkscape:pageopacity="0.0"
     inkscape:pageshadow="2"
     inkscape:zoom="0.36934332"
     inkscape:cx="4276.7781"
     inkscape:cy="1271.2322"
     inkscape:document-units="px"
     inkscape:current-layer="layer1"
     inkscape:document-rotation="0"
     showgrid="false"
     units="px"
     inkscape:window-width="1366"
     inkscape:window-height="705"
     inkscape:window-x="-8"
     inkscape:window-y="-8"
     inkscape:window-maximized="1" />
  <metadata
     id="metadata48">
    <rdf:RDF>
      <cc:Work
         rdf:about="">
        <dc:format>image/svg+xml</dc:format>
        <dc:type
           rdf:resource="http://purl.org/dc/dcmitype/StillImage" />
        <dc:title />
      </cc:Work>
    </rdf:RDF>
  </metadata>
  <g
     inkscape:label="Layer 1"
     inkscape:groupmode="layer"
     id="layer1">
    <g
       id="g1251">
      <circle
         style="fill:none;fill-rule:evenodd;stroke:#000080;stroke-width:5.29167;stroke-miterlimit:4;stroke-dasharray:none;stroke-opacity:1"
         id="circle883"
         cx="264.58334"
         cy="264.58334"
         r="263.26462" />
      <circle
         style="fill:none;fill-rule:evenodd;stroke:#000080;stroke-width:7.9375;stroke-miterlimit:4;stroke-dasharray:none;stroke-opacity:1"
         id="circle889"
         cx="264.58334"
         cy="264.58334"
         r="206.96718"
         inkscape:transform-center-x="328.63966"
         inkscape:transform-center-y="-492.9595" />
      <circle
         style="fill:none;fill-rule:evenodd;stroke:#000080;stroke-width:10.5833;stroke-miterlimit:4;stroke-dasharray:none;stroke-opacity:1"
         id="circle881"
         cx="264.58334"
         cy="264.58334"
         r="162.7099" />
      <circle
         style="fill:none;fill-rule:evenodd;stroke:#000080;stroke-width:13.2292;stroke-miterlimit:4;stroke-dasharray:none;stroke-opacity:1"
         id="circle887"
         cx="264.58334"
         cy="264.58334"
         r="127.91544"
         inkscape:transform-center-x="203.11475"
         inkscape:transform-center-y="-304.67211" />
      <circle
         style="fill:none;fill-rule:evenodd;stroke:#000080;stroke-width:15.875;stroke-miterlimit:4;stroke-dasharray:none;stroke-opacity:1"
         id="circle879"
         cx="264.58334"
         cy="264.58334"
         r="100.56238" />
      <circle
         style="fill:none;fill-rule:evenodd;stroke:#000080;stroke-width:18.5208;stroke-miterlimit:4;stroke-dasharray:none;stroke-opacity:1"
         id="circle885"
         cx="264.58334"
         cy="264.58334"
         r="79.057732"
         inkscape:transform-center-x="125.53443"
         inkscape:transform-center-y="-188.30164" />
      <circle
         style="fill:#000080;fill-rule:evenodd;stroke:#ff0000;stroke-width:0.226676;stroke-opacity:1"
         id="circle875"
         cx="264.58334"
         cy="264.58334"
         r="62.15229" />
      <circle
         style="fill:none;fill-rule:evenodd;stroke:#000080;stroke-width:2.64583;stroke-miterlimit:4;stroke-dasharray:none;stroke-opacity:1"
         id="circle1001"
         cx="264.58334"
         cy="264.58334"
         r="334.87289"
         inkscape:transform-center-x="531.73899"
         inkscape:transform-center-y="-797.6085" />
    </g>
    <circle
       style="fill:#ff0000;fill-rule:evenodd;stroke-width:0.174852"
       id="path1099"
       cx="1131.5642"
       cy="336.34686"
       r="336.19586" />
    <circle
       style="fill:#008000;fill-rule:evenodd;stroke-width:0.173476"
       id="circle1101"
       cx="1131.5642"
       cy="336.34686"
       r="333.55002" />
    <circle
       style="fill:#ff0000;fill-rule:evenodd;stroke-width:0.138297"
       id="circle1111"
       cx="1131.5642"
       cy="336.34686"
       r="265.91049" />
    <circle
       style="fill:#008000;fill-rule:evenodd;stroke-width:0.135545"
       id="circle1113"
       cx="1131.5642"
       cy="336.34686"
       r="260.6188" />
    <circle
       style="fill:#ff0000;fill-rule:evenodd;stroke-width:0.109705"
       id="circle1137"
       cx="1131.5642"
       cy="336.34686"
       r="210.93588" />
    <circle
       style="fill:#008000;fill-rule:evenodd;stroke-width:0.105577"
       id="circle1141"
       cx="1131.5642"
       cy="336.34686"
       r="202.99838" />
    <circle
       style="fill:#ff0000;fill-rule:evenodd;stroke-width:0.0873755"
       id="circle1143"
       cx="-1131.5642"
       cy="336.34686"
       r="168.00156"
       transform="scale(-1,1)" />
    <circle
       style="fill:#008000;fill-rule:evenodd;stroke-width:0.0818713"
       id="circle1145"
       cx="1131.5642"
       cy="336.34686"
       r="157.41821" />
    <circle
       style="fill:#ff0000;fill-rule:evenodd;stroke-width:0.0699674"
       id="circle1149"
       cx="1131.5642"
       cy="336.34686"
       r="134.53004" />
    <circle
       style="fill:#008000;fill-rule:evenodd;stroke-width:0.0630871"
       id="circle1151"
       cx="1131.5642"
       cy="336.34686"
       r="121.30087" />
    <circle
       style="fill:#ff0000;fill-rule:evenodd;stroke-width:0.0564295"
       id="circle1155"
       cx="1131.5642"
       cy="336.34686"
       r="108.49994" />
    <circle
       style="fill:#008000;fill-rule:evenodd;stroke-width:0.0481731"
       id="circle1157"
       cx="1131.5642"
       cy="336.34686"
       r="92.624939" />
    <path
       id="circle1159"
       style="fill:#ff0000;fill-rule:evenodd;stroke-width:0.173606"
       d="m 4276.3359,937.43164 a 333.80101,333.80101 0 0 0 -333.3593,333.80076 333.80101,333.80101 0 0 0 333.8007,333.8008 333.80101,333.80101 0 0 0 333.8028,-333.8008 333.80101,333.80101 0 0 0 -333.8028,-333.80076 333.80101,333.80101 0 0 0 -0.4414,0 z m -0.1035,69.99996 a 263.801,263.801 0 0 1 0.5449,0 263.801,263.801 0 0 1 263.8028,263.8008 263.801,263.801 0 0 1 -263.8028,263.8008 263.801,263.801 0 0 1 -263.8007,-263.8008 263.801,263.801 0 0 1 263.2558,-263.8008 z"
       transform="scale(0.26458333)" />
    <path
       id="circle1174"
       style="fill:#ff0000;fill-rule:evenodd;stroke-width:0.0323835"
       d="m 1193.8298,336.34686 a 62.265587,62.265587 0 0 1 -62.2656,62.26559 62.265587,62.265587 0 0 1 -62.2656,-62.26559 62.265587,62.265587 0 0 1 62.2656,-62.26558 62.265587,62.265587 0 0 1 62.2656,62.26558 z" />
    <path
       id="path990"
       style="fill:none;fill-rule:evenodd;stroke-width:0.0323835"
       d="m 1088.5964,318.85813 a 46.390594,46.390594 0 0 1 60.4565,-25.47909 46.390594,46.390594 0 0 1 25.4791,60.45659 46.390594,46.390594 0 0 1 -60.4566,25.47899 46.390594,46.390594 0 0 1 -25.479,-60.45649 z" />
    <path
       id="path1009"
       style="fill:none;fill-rule:evenodd;stroke-width:0.0323835"
       d="m 1174.532,353.83557 a 46.390594,46.390594 0 0 1 -60.4565,25.4791 46.390594,46.390594 0 0 1 -25.4791,-60.4566 46.390594,46.390594 0 0 1 60.4566,-25.479 46.390594,46.390594 0 0 1 25.479,60.4565 z" />
    <text
       xml:space="preserve"
       style="font-size:38.1px;line-height:39.55;font-family:sans-serif;word-spacing:26.4583px;stroke-width:0.264583"
       x="973.35059"
       y="297.37628"
       id="text1030"><tspan
         sodipodi:role="line"
         id="tspan1028"
         x="973.35059"
         y="297.37628"
         style="stroke-width:0.264583" /></text>
  </g>
</svg>
