<?xml version="1.0" encoding="UTF-8"?>
<svg width="39.062" height="10" version="1.1" viewBox="0 0 10.335 2.6458" xmlns="http://www.w3.org/2000/svg" xmlns:cc="http://creativecommons.org/ns#" xmlns:dc="http://purl.org/dc/elements/1.1/" xmlns:rdf="http://www.w3.org/1999/02/22-rdf-syntax-ns#">
 <defs>
  <clipPath id="clipPath2461">
   <circle cx="132.29" cy="132.29" r="132.29" style="fill-rule:evenodd;fill:#f00;stroke-width:.26458"/>
  </clipPath>
  <clipPath id="clipPath2461-3">
   <circle cx="132.29" cy="132.29" r="132.29" style="fill-rule:evenodd;fill:#f00;stroke-width:.26458"/>
  </clipPath>
  <clipPath id="clipPath1777">
   <circle cx="356.88" cy="101.48" r="33.841" style="fill-rule:evenodd;fill:#f00;opacity:.4;stroke-width:.64993"/>
  </clipPath>
  <clipPath id="clipPath2379">
   <circle cx="20.759" cy="-159.19" r="43.998" style="fill-rule:evenodd;fill:#ff0;opacity:.66;stroke-width:.2988"/>
  </clipPath>
 </defs>
 <metadata>
  <rdf:RDF>
   <cc:Work rdf:about="">
    <dc:format>image/svg+xml</dc:format>
    <dc:type rdf:resource="http://purl.org/dc/dcmitype/StillImage"/>
    <dc:title/>
   </cc:Work>
  </rdf:RDF>
 </metadata>
 <g transform="translate(-246.69 155.19)">
  <rect x="-13.392" y="-9.8633" width="124.77" height="126.03" rx="1.3229" ry=".81594" style="fill-rule:evenodd;fill:#f00;paint-order:markers fill stroke"/>
  <g transform="translate(102.3 -207.22)">
   <g transform="matrix(-.05618 0 0 -.05618 -276.56 350.5)" style="stroke-width:17.8">
    <circle cx="13.229" cy="13.229" r="13.229" style="fill-rule:evenodd;fill:#003"/>
    <circle cx="13.229" cy="39.688" r="13.229" style="fill-rule:evenodd;fill:#030"/>
    <circle cx="52.917" cy="26.458" r="26.458" style="fill-rule:evenodd;fill:#006"/>
    <circle cx="39.688" cy="92.604" r="39.688" style="fill-rule:evenodd;fill:#060"/>
    <circle cx="145.52" cy="66.146" r="66.146" style="fill-rule:evenodd;fill:#009"/>
    <circle cx="105.83" cy="238.12" r="105.83" style="fill-rule:evenodd;fill:#090"/>
    <circle cx="383.65" cy="171.98" r="171.98" style="fill-rule:evenodd;fill:#0ff"/>
    <circle cx="277.81" cy="621.77" r="277.81" style="fill-rule:evenodd;fill:#00c"/>
    <circle cx="1005.4" cy="449.79" r="449.79" style="fill-rule:evenodd;fill:#0c0"/>
    <circle cx="727.6" cy="1627.2" r="727.6" style="fill-rule:evenodd;fill:#00f"/>
    <path transform="scale(.26458)" d="m8900 125.65a4450 4450 0 0 0-3400 4324.3 4450 4450 0 0 0 0 0.6328 4450 4450 0 0 0 3400 4323.7z" style="fill-rule:evenodd;fill:#0f0"/>
   </g>
   <g transform="matrix(0 -.05618 .05618 0 -276.56 350.5)" style="stroke-width:17.8">
    <circle cx="13.229" cy="13.229" r="13.229" style="fill-rule:evenodd;fill:#003"/>
    <circle cx="13.229" cy="39.688" r="13.229" style="fill-rule:evenodd;fill:#030"/>
    <circle cx="52.917" cy="26.458" r="26.458" style="fill-rule:evenodd;fill:#006"/>
    <circle cx="39.688" cy="92.604" r="39.688" style="fill-rule:evenodd;fill:#060"/>
    <circle cx="145.52" cy="66.146" r="66.146" style="fill-rule:evenodd;fill:#009"/>
    <circle cx="105.83" cy="238.12" r="105.83" style="fill-rule:evenodd;fill:#090"/>
    <circle cx="383.65" cy="171.98" r="171.98" style="fill-rule:evenodd;fill:#0ff"/>
    <circle cx="277.81" cy="621.77" r="277.81" style="fill-rule:evenodd;fill:#00c"/>
    <circle cx="1005.4" cy="449.79" r="449.79" style="fill-rule:evenodd;fill:#0c0"/>
    <circle cx="727.6" cy="1627.2" r="727.6" style="fill-rule:evenodd;fill:#00f"/>
    <path transform="scale(.26458)" d="m8900 125.65a4450 4450 0 0 0-3400 4324.3 4450 4450 0 0 0 0 0.6328 4450 4450 0 0 0 3400 4323.7z" style="fill-rule:evenodd;fill:#0f0"/>
   </g>
   <g transform="matrix(.05618 0 0 .05618 -276.56 350.5)" style="stroke-width:17.8">
    <circle cx="13.229" cy="13.229" r="13.229" style="fill-rule:evenodd;fill:#003"/>
    <circle cx="13.229" cy="39.688" r="13.229" style="fill-rule:evenodd;fill:#030"/>
    <circle cx="52.917" cy="26.458" r="26.458" style="fill-rule:evenodd;fill:#006"/>
    <circle cx="39.688" cy="92.604" r="39.688" style="fill-rule:evenodd;fill:#060"/>
    <circle cx="145.52" cy="66.146" r="66.146" style="fill-rule:evenodd;fill:#009"/>
    <circle cx="105.83" cy="238.12" r="105.83" style="fill-rule:evenodd;fill:#090"/>
    <circle cx="383.65" cy="171.98" r="171.98" style="fill-rule:evenodd;fill:#0ff"/>
    <circle cx="277.81" cy="621.77" r="277.81" style="fill-rule:evenodd;fill:#00c"/>
    <circle cx="1005.4" cy="449.79" r="449.79" style="fill-rule:evenodd;fill:#0c0"/>
    <circle cx="727.6" cy="1627.2" r="727.6" style="fill-rule:evenodd;fill:#00f"/>
    <path transform="scale(.26458)" d="m8900 125.65a4450 4450 0 0 0-3400 4324.3 4450 4450 0 0 0 0 0.6328 4450 4450 0 0 0 3400 4323.7z" style="fill-rule:evenodd;fill:#0f0"/>
   </g>
   <g transform="matrix(0 .05618 -.05618 0 -276.56 350.5)" style="stroke-width:17.8">
    <circle cx="13.229" cy="13.229" r="13.229" style="fill-rule:evenodd;fill:#003"/>
    <circle cx="13.229" cy="39.688" r="13.229" style="fill-rule:evenodd;fill:#030"/>
    <circle cx="52.917" cy="26.458" r="26.458" style="fill-rule:evenodd;fill:#006"/>
    <circle cx="39.688" cy="92.604" r="39.688" style="fill-rule:evenodd;fill:#060"/>
    <circle cx="145.52" cy="66.146" r="66.146" style="fill-rule:evenodd;fill:#009"/>
    <circle cx="105.83" cy="238.12" r="105.83" style="fill-rule:evenodd;fill:#090"/>
    <circle cx="383.65" cy="171.98" r="171.98" style="fill-rule:evenodd;fill:#0ff"/>
    <circle cx="277.81" cy="621.77" r="277.81" style="fill-rule:evenodd;fill:#00c"/>
    <circle cx="1005.4" cy="449.79" r="449.79" style="fill-rule:evenodd;fill:#0c0"/>
    <circle cx="727.6" cy="1627.2" r="727.6" style="fill-rule:evenodd;fill:#00f"/>
    <path transform="scale(.26458)" d="m8900 125.65a4450 4450 0 0 0-3400 4324.3 4450 4450 0 0 0 0 0.6328 4450 4450 0 0 0 3400 4323.7z" style="fill-rule:evenodd;fill:#0f0"/>
   </g>
  </g>
  <g transform="translate(-602.53 9.6111)">
   <g transform="matrix(-.05618 0 0 -.05618 132.29 132.29)" style="stroke-width:17.8">
    <rect width="26.458" height="26.458" style="fill-rule:evenodd;fill:#003;paint-order:stroke fill markers"/>
    <rect y="26.458" width="26.458" height="26.458" style="fill-rule:evenodd;fill:#030;paint-order:stroke fill markers"/>
    <rect x="26.458" width="52.917" height="52.917" style="fill-rule:evenodd;fill:#006;paint-order:stroke fill markers"/>
    <rect y="52.917" width="79.375" height="79.375" style="fill-rule:evenodd;fill:#060;paint-order:stroke fill markers"/>
    <rect x="79.375" width="132.29" height="132.29" style="fill-rule:evenodd;fill:#009;paint-order:stroke fill markers"/>
    <rect y="132.29" width="211.67" height="211.67" style="fill-rule:evenodd;fill:#090;paint-order:stroke fill markers"/>
    <rect x="211.67" width="343.96" height="343.96" style="fill-rule:evenodd;fill:#0ff;paint-order:stroke fill markers"/>
    <rect y="343.96" width="555.62" height="555.62" style="fill-rule:evenodd;fill:#00c;paint-order:stroke fill markers"/>
    <rect x="555.62" width="899.58" height="899.58" style="fill-rule:evenodd;fill:#0c0;paint-order:stroke fill markers"/>
    <rect y="899.58" width="1455.2" height="1455.2" style="fill-rule:evenodd;fill:#00f;paint-order:stroke fill markers"/>
    <rect x="1455.2" width="899.58" height="2354.8" style="fill-rule:evenodd;fill:#0f0;paint-order:stroke fill markers"/>
   </g>
   <g transform="matrix(0 -.05618 .05618 0 132.29 132.29)" style="stroke-width:17.8">
    <rect width="26.458" height="26.458" style="fill-rule:evenodd;fill:#003;paint-order:stroke fill markers"/>
    <rect y="26.458" width="26.458" height="26.458" style="fill-rule:evenodd;fill:#030;paint-order:stroke fill markers"/>
    <rect x="26.458" width="52.917" height="52.917" style="fill-rule:evenodd;fill:#006;paint-order:stroke fill markers"/>
    <rect y="52.917" width="79.375" height="79.375" style="fill-rule:evenodd;fill:#060;paint-order:stroke fill markers"/>
    <rect x="79.375" width="132.29" height="132.29" style="fill-rule:evenodd;fill:#009;paint-order:stroke fill markers"/>
    <rect y="132.29" width="211.67" height="211.67" style="fill-rule:evenodd;fill:#090;paint-order:stroke fill markers"/>
    <rect x="211.67" width="343.96" height="343.96" style="fill-rule:evenodd;fill:#0ff;paint-order:stroke fill markers"/>
    <rect y="343.96" width="555.62" height="555.62" style="fill-rule:evenodd;fill:#00c;paint-order:stroke fill markers"/>
    <rect x="555.62" width="899.58" height="899.58" style="fill-rule:evenodd;fill:#0c0;paint-order:stroke fill markers"/>
    <rect y="899.58" width="1455.2" height="1455.2" style="fill-rule:evenodd;fill:#00f;paint-order:stroke fill markers"/>
    <rect x="1455.2" width="899.58" height="2354.8" style="fill-rule:evenodd;fill:#0f0;paint-order:stroke fill markers"/>
   </g>
   <g transform="matrix(.05618 0 0 .05618 132.29 132.29)" style="stroke-width:17.8">
    <rect width="26.458" height="26.458" style="fill-rule:evenodd;fill:#003;paint-order:stroke fill markers"/>
    <rect y="26.458" width="26.458" height="26.458" style="fill-rule:evenodd;fill:#030;paint-order:stroke fill markers"/>
    <rect x="26.458" width="52.917" height="52.917" style="fill-rule:evenodd;fill:#006;paint-order:stroke fill markers"/>
    <rect y="52.917" width="79.375" height="79.375" style="fill-rule:evenodd;fill:#060;paint-order:stroke fill markers"/>
    <rect x="79.375" width="132.29" height="132.29" style="fill-rule:evenodd;fill:#009;paint-order:stroke fill markers"/>
    <rect y="132.29" width="211.67" height="211.67" style="fill-rule:evenodd;fill:#090;paint-order:stroke fill markers"/>
    <rect x="211.67" width="343.96" height="343.96" style="fill-rule:evenodd;fill:#0ff;paint-order:stroke fill markers"/>
    <rect y="343.96" width="555.62" height="555.62" style="fill-rule:evenodd;fill:#00c;paint-order:stroke fill markers"/>
    <rect x="555.62" width="899.58" height="899.58" style="fill-rule:evenodd;fill:#0c0;paint-order:stroke fill markers"/>
    <rect y="899.58" width="1455.2" height="1455.2" style="fill-rule:evenodd;fill:#00f;paint-order:stroke fill markers"/>
    <rect x="1455.2" width="899.58" height="2354.8" style="fill-rule:evenodd;fill:#0f0;paint-order:stroke fill markers"/>
   </g>
   <g transform="matrix(0 .05618 -.05618 0 132.29 132.29)" style="stroke-width:17.8">
    <rect width="26.458" height="26.458" style="fill-rule:evenodd;fill:#003;paint-order:stroke fill markers"/>
    <rect y="26.458" width="26.458" height="26.458" style="fill-rule:evenodd;fill:#030;paint-order:stroke fill markers"/>
    <rect x="26.458" width="52.917" height="52.917" style="fill-rule:evenodd;fill:#006;paint-order:stroke fill markers"/>
    <rect y="52.917" width="79.375" height="79.375" style="fill-rule:evenodd;fill:#060;paint-order:stroke fill markers"/>
    <rect x="79.375" width="132.29" height="132.29" style="fill-rule:evenodd;fill:#009;paint-order:stroke fill markers"/>
    <rect y="132.29" width="211.67" height="211.67" style="fill-rule:evenodd;fill:#090;paint-order:stroke fill markers"/>
    <rect x="211.67" width="343.96" height="343.96" style="fill-rule:evenodd;fill:#0ff;paint-order:stroke fill markers"/>
    <rect y="343.96" width="555.62" height="555.62" style="fill-rule:evenodd;fill:#00c;paint-order:stroke fill markers"/>
    <rect x="555.62" width="899.58" height="899.58" style="fill-rule:evenodd;fill:#0c0;paint-order:stroke fill markers"/>
    <rect y="899.58" width="1455.2" height="1455.2" style="fill-rule:evenodd;fill:#00f;paint-order:stroke fill markers"/>
    <rect x="1455.2" width="899.58" height="2354.8" style="fill-rule:evenodd;fill:#0f0;paint-order:stroke fill markers"/>
   </g>
  </g>
  <text style="font-family:Castellar;font-size:38.1px;line-height:39.55;shape-inside:url(#rect4605);white-space:pre;word-spacing:26.458px" xml:space="preserve"/>
  <text style="font-family:Castellar;font-size:38.1px;line-height:39.55;shape-inside:url(#rect4627);white-space:pre;word-spacing:26.458px" xml:space="preserve"><tspan x="138.89648" y="821.25281" style="visibility:hidden"><tspan dx="0 40.071972 30.97485 18.250053 26.314667">Masta</tspan></tspan></text>
  <g transform="matrix(.87904 0 0 .87904 1.2673 133.9)" style="stroke-width:1.1376">
   <g transform="matrix(.28441 0 0 .28441 1.2869 62.035)" clip-path="url(#clipPath2461)" style="stroke-width:3.9999">
    <g transform="matrix(0 -.5 .5 0 -1.6806e-6 132.29)" style="stroke-width:7.9998">
     <ellipse transform="rotate(-90)" cx="-263.1" cy="1.4864" rx="1.4864" ry="1.4864" style="fill-rule:evenodd;fill:#00001c"/>
     <ellipse transform="rotate(-90)" cx="-263.1" cy="4.4593" rx="1.4864" ry="1.4864" style="fill-rule:evenodd;fill:#001c00"/>
     <ellipse transform="rotate(-90)" cx="-258.64" cy="2.9729" rx="2.9728" ry="2.9728" style="fill-rule:evenodd;fill:#000035"/>
     <ellipse transform="rotate(-90)" cx="-260.12" cy="10.405" rx="4.4593" ry="4.4593" style="fill-rule:evenodd;fill:#003500"/>
     <ellipse transform="rotate(-90)" cx="-248.23" cy="7.4321" rx="7.4321" ry="7.4321" style="fill-rule:evenodd;fill:#00004d"/>
     <ellipse transform="rotate(-90)" cx="-252.69" cy="26.756" rx="11.891" ry="11.891" style="fill-rule:evenodd;fill:#004d00"/>
     <ellipse transform="rotate(-90)" cx="-221.48" cy="19.324" rx="19.324" ry="19.324" style="fill-rule:evenodd;fill:#0ff"/>
     <ellipse transform="rotate(-90)" cx="-233.37" cy="69.862" rx="31.215" ry="31.215" style="fill-rule:evenodd;fill:#000067"/>
     <ellipse transform="rotate(-90)" cx="-151.62" cy="50.538" rx="50.538" ry="50.538" style="fill-rule:evenodd;fill:#006700"/>
     <ellipse transform="rotate(-90)" cx="-182.83" cy="182.83" rx="81.753" ry="81.753" style="fill-rule:evenodd;fill:#000080"/>
     <path d="m3.7354 4.0021e-6a132.29 132.29 0 0 0 128.56 101.08 132.29 132.29 0 0 0 0.0188 0 132.29 132.29 0 0 0 128.54-101.08z" style="fill-rule:evenodd;fill:#008000"/>
    </g>
    <g transform="matrix(.5 0 0 .5 132.29 -1.6806e-6)" style="stroke-width:7.9998">
     <ellipse transform="rotate(-90)" cx="-263.1" cy="1.4864" rx="1.4864" ry="1.4864" style="fill-rule:evenodd;fill:#00001c"/>
     <ellipse transform="rotate(-90)" cx="-263.1" cy="4.4593" rx="1.4864" ry="1.4864" style="fill-rule:evenodd;fill:#001c00"/>
     <ellipse transform="rotate(-90)" cx="-258.64" cy="2.9729" rx="2.9728" ry="2.9728" style="fill-rule:evenodd;fill:#000035"/>
     <ellipse transform="rotate(-90)" cx="-260.12" cy="10.405" rx="4.4593" ry="4.4593" style="fill-rule:evenodd;fill:#003500"/>
     <ellipse transform="rotate(-90)" cx="-248.23" cy="7.4321" rx="7.4321" ry="7.4321" style="fill-rule:evenodd;fill:#00004d"/>
     <ellipse transform="rotate(-90)" cx="-252.69" cy="26.756" rx="11.891" ry="11.891" style="fill-rule:evenodd;fill:#004d00"/>
     <ellipse transform="rotate(-90)" cx="-221.48" cy="19.324" rx="19.324" ry="19.324" style="fill-rule:evenodd;fill:#0ff"/>
     <ellipse transform="rotate(-90)" cx="-233.37" cy="69.862" rx="31.215" ry="31.215" style="fill-rule:evenodd;fill:#000067"/>
     <ellipse transform="rotate(-90)" cx="-151.62" cy="50.538" rx="50.538" ry="50.538" style="fill-rule:evenodd;fill:#006700"/>
     <ellipse transform="rotate(-90)" cx="-182.83" cy="182.83" rx="81.753" ry="81.753" style="fill-rule:evenodd;fill:#000080"/>
     <path d="m3.7354 4.0021e-6a132.29 132.29 0 0 0 128.56 101.08 132.29 132.29 0 0 0 0.0188 0 132.29 132.29 0 0 0 128.54-101.08z" style="fill-rule:evenodd;fill:#008000"/>
    </g>
    <g transform="matrix(0 .5 -.5 0 264.58 132.29)" style="stroke-width:7.9998">
     <ellipse transform="rotate(-90)" cx="-263.1" cy="1.4864" rx="1.4864" ry="1.4864" style="fill-rule:evenodd;fill:#00001c"/>
     <ellipse transform="rotate(-90)" cx="-263.1" cy="4.4593" rx="1.4864" ry="1.4864" style="fill-rule:evenodd;fill:#001c00"/>
     <ellipse transform="rotate(-90)" cx="-258.64" cy="2.9729" rx="2.9728" ry="2.9728" style="fill-rule:evenodd;fill:#000035"/>
     <ellipse transform="rotate(-90)" cx="-260.12" cy="10.405" rx="4.4593" ry="4.4593" style="fill-rule:evenodd;fill:#003500"/>
     <ellipse transform="rotate(-90)" cx="-248.23" cy="7.4321" rx="7.4321" ry="7.4321" style="fill-rule:evenodd;fill:#00004d"/>
     <ellipse transform="rotate(-90)" cx="-252.69" cy="26.756" rx="11.891" ry="11.891" style="fill-rule:evenodd;fill:#004d00"/>
     <ellipse transform="rotate(-90)" cx="-221.48" cy="19.324" rx="19.324" ry="19.324" style="fill-rule:evenodd;fill:#0ff"/>
     <ellipse transform="rotate(-90)" cx="-233.37" cy="69.862" rx="31.215" ry="31.215" style="fill-rule:evenodd;fill:#000067"/>
     <ellipse transform="rotate(-90)" cx="-151.62" cy="50.538" rx="50.538" ry="50.538" style="fill-rule:evenodd;fill:#006700"/>
     <ellipse transform="rotate(-90)" cx="-182.83" cy="182.83" rx="81.753" ry="81.753" style="fill-rule:evenodd;fill:#000080"/>
     <path d="m3.7354 4.0021e-6a132.29 132.29 0 0 0 128.56 101.08 132.29 132.29 0 0 0 0.0188 0 132.29 132.29 0 0 0 128.54-101.08z" style="fill-rule:evenodd;fill:#008000"/>
    </g>
    <g transform="matrix(-.5 0 0 -.5 132.29 264.58)" style="stroke-width:7.9998">
     <ellipse transform="rotate(-90)" cx="-263.1" cy="1.4864" rx="1.4864" ry="1.4864" style="fill-rule:evenodd;fill:#00001c"/>
     <ellipse transform="rotate(-90)" cx="-263.1" cy="4.4593" rx="1.4864" ry="1.4864" style="fill-rule:evenodd;fill:#001c00"/>
     <ellipse transform="rotate(-90)" cx="-258.64" cy="2.9729" rx="2.9728" ry="2.9728" style="fill-rule:evenodd;fill:#000035"/>
     <ellipse transform="rotate(-90)" cx="-260.12" cy="10.405" rx="4.4593" ry="4.4593" style="fill-rule:evenodd;fill:#003500"/>
     <ellipse transform="rotate(-90)" cx="-248.23" cy="7.4321" rx="7.4321" ry="7.4321" style="fill-rule:evenodd;fill:#00004d"/>
     <ellipse transform="rotate(-90)" cx="-252.69" cy="26.756" rx="11.891" ry="11.891" style="fill-rule:evenodd;fill:#004d00"/>
     <ellipse transform="rotate(-90)" cx="-221.48" cy="19.324" rx="19.324" ry="19.324" style="fill-rule:evenodd;fill:#0ff"/>
     <ellipse transform="rotate(-90)" cx="-233.37" cy="69.862" rx="31.215" ry="31.215" style="fill-rule:evenodd;fill:#000067"/>
     <ellipse transform="rotate(-90)" cx="-151.62" cy="50.538" rx="50.538" ry="50.538" style="fill-rule:evenodd;fill:#006700"/>
     <ellipse transform="rotate(-90)" cx="-182.83" cy="182.83" rx="81.753" ry="81.753" style="fill-rule:evenodd;fill:#000080"/>
     <path d="m3.7354 4.0021e-6a132.29 132.29 0 0 0 128.56 101.08 132.29 132.29 0 0 0 0.0188 0 132.29 132.29 0 0 0 128.54-101.08z" style="fill-rule:evenodd;fill:#008000"/>
    </g>
   </g>
   <g style="stroke-width:1.1376">
    <text x="103.2143" y="99.261627" style="fill:#000080;font-family:Castellar;font-size:40.681px;letter-spacing:6.2696px;line-height:0;stroke-width:.30099;word-spacing:28.011px" xml:space="preserve"><tspan x="103.2143" y="99.261627" style="fill:#000080;font-family:Magneto;letter-spacing:2.3682px;line-height:40.25;stroke-width:.30099">Prakhar</tspan></text>
    <g transform="translate(-3.5706 -86.592)" style="stroke-width:1.1376">
     <path d="m148.41 212.39q-0.71308 1.9643-4.7199 1.9643h-6.0952q-2.8523 0-2.8523-1.1908 0-0.41742 0.35654-1.0927l2.8184-5.3036-8.4212 6.6786q-1.3583 1.0926-2.9712 1.0926-0.30563 0-0.64518-0.0368-1.9355-0.15962-1.9355-1.3996 0-0.4788 0.30562-1.0313l4.1766-7.7958-10.476 9.1463q-1.0526 0.93304-3.09 0.93304h-3.4466l6.8592-14.18h-9.4229l2.5637-3.0938h11.341q2.343 0 2.343 1.24 0 0.4788-0.32259 1.154l-3.6503 7.6117 7.3006-5.9788q1.3922-1.154 2.1392-1.4978 1.2394-0.56474 3.2089-0.56474 0.56028 0 1.1715 0.28237 0.9338 0.44197 0.9338 1.3136 0 0.54018-0.37353 1.2154l-3.2938 6.1876 6.5366-4.7512q1.3922-1.0067 1.8506-1.2154 0.79798-0.33147 2.292-0.31921 0.59424 0 1.2564 0.31921 1.0187 0.4788 1.0187 1.3996 0 0.52791-0.33956 1.1663l-4.0578 7.7467z" style="fill:#008000;stroke-width:.30099"/>
     <path d="m177.26 212.39q-0.81494 1.9643-4.1596 1.9643h-6.4347q-2.7505 0-2.7505-1.2768-1.8506 1.5223-4.5502 1.5223-1.9864 0-3.2258-0.88394-1.2394-0.88394-1.2394-2.3081 0-2.5659 2.7165-4.0514 2.4618-1.3505 6.0951-1.3505h9.6946l-3.1919 6.384zm-10.951-4.4197h-3.7522l-1.1885 2.8605q-0.10184 0.27008-0.10184 0.49108 0 1.0681 2.8863 1.0681z" style="fill:#008000;stroke-width:.30099"/>
     <path d="m204.36 212.39q-0.0678 0.82255-1.3073 1.3996-1.2224 0.56473-2.6826 0.56473h-12.903q-3.7182 0-3.7182-1.6451 0-0.14732 0.034-0.31921 0.13582-0.7366 1.0866-1.1418 0.81495-0.35603 1.8676-0.34375 1.8336 0.0368 4.9746 1.461 0.89984-0.81028 0.89984-1.6451 0-0.41742-0.73005-1.9029l-1.9185 1.2645h-3.3956l4.5162-3.0201q-0.30563-0.38058-0.42447-0.62612-0.22071-0.45425-0.23769-1.0313l4.1766-3.2165q2.8184 0.34374 2.8184 1.8538 0 0.88393-0.73006 1.6328 0.62819 1.2031 1.2734 2.4063 0.78099 1.5469 0.78099 2.5045 0 1.0558-1.1545 1.8047z" style="fill:#008000;stroke-width:.30099"/>
     <path d="m226.71 212.39q-0.79796 1.9643-4.2445 1.9643h-8.6589q-2.5128 0-2.5128-1.2768 0-0.3192 0.18676-0.68752l2.1562-4.4197h-2.7844l1.0696-1.9643q2.9712-0.55244 4.4143-1.4118 1.6299-0.96986 3.4805-3.5112h3.3107l-2.3939 4.923h4.3804q-1.0526 1.9643-4.2785 1.9643h-1.1206l-2.1223 4.4197z" style="fill:#008000;stroke-width:.30099"/>
     <path d="m255.56 212.39q-0.81495 1.9643-4.1596 1.9643h-6.4347q-2.7505 0-2.7505-1.2768-1.8506 1.5223-4.5502 1.5223-1.9865 0-3.2258-0.88394-1.2394-0.88394-1.2394-2.3081 0-2.5659 2.7165-4.0514 2.4618-1.3505 6.0952-1.3505h9.6946l-3.1919 6.384zm-10.951-4.4197h-3.7522l-1.1885 2.8605q-0.10184 0.27008-0.10184 0.49108 0 1.0681 2.8863 1.0681z" style="fill:#008000;stroke-width:.30099"/>
     <path d="m273.97 200.97q0 1.2277-1.3243 2.0871-1.3073 0.85938-3.158 0.85938-1.8846 0-3.2089-0.85938-1.3073-0.85939-1.3073-2.0871 0-1.2154 1.3073-2.0748 1.3243-0.85938 3.2089-0.85938 1.8506 0 3.158 0.85938 1.3243 0.85938 1.3243 2.0748zm1.2224 11.418q-0.44143 1.0804-1.8336 1.596-1.0017 0.3683-2.1732 0.3683h-6.7064q-2.4279 0-2.4279-1.4732 0-0.41741 0.23769-0.89622l2.9542-5.9789h6.1631l-3.141 6.384z" style="fill:#008000;stroke-width:.30099"/>
     <path d="m305.85 212.39q-0.44143 1.0804-1.9525 1.596-1.0696 0.3683-2.2921 0.3683h-6.7743q-2.326 0-2.326-1.1049 0-0.36829 0.23771-0.85938l1.2903-2.6395-5.8405 3.5726q-2.0544 1.0313-3.3786 1.0313h-3.124l4.0578-8.3483h6.1291l-1.9186 3.9286 5.1784-3.0692q2.1053-1.24 4.5671-1.1909 1.6639 0.0491 1.6639 1.2768 0 0.45425-0.27165 1.019l-2.1902 4.4197z" style="fill:#008000;stroke-width:.30099"/>
    </g>
   </g>
  </g>
  <g transform="matrix(.2558 0 0 .2558 -13.392 115.69)" clip-path="url(#clipPath2461-3)" style="stroke-width:3.9092">
   <g transform="matrix(0 -.5 .5 0 -1.6806e-6 132.29)" style="stroke-width:7.8185">
    <ellipse transform="rotate(-90)" cx="-263.1" cy="1.4864" rx="1.4864" ry="1.4864" style="fill-rule:evenodd;fill:#00001c"/>
    <ellipse transform="rotate(-90)" cx="-263.1" cy="4.4593" rx="1.4864" ry="1.4864" style="fill-rule:evenodd;fill:#001c00"/>
    <ellipse transform="rotate(-90)" cx="-258.64" cy="2.9729" rx="2.9728" ry="2.9728" style="fill-rule:evenodd;fill:#000035"/>
    <ellipse transform="rotate(-90)" cx="-260.12" cy="10.405" rx="4.4593" ry="4.4593" style="fill-rule:evenodd;fill:#003500"/>
    <ellipse transform="rotate(-90)" cx="-248.23" cy="7.4321" rx="7.4321" ry="7.4321" style="fill-rule:evenodd;fill:#00004d"/>
    <ellipse transform="rotate(-90)" cx="-252.69" cy="26.756" rx="11.891" ry="11.891" style="fill-rule:evenodd;fill:#004d00"/>
    <ellipse transform="rotate(-90)" cx="-221.48" cy="19.324" rx="19.324" ry="19.324" style="fill-rule:evenodd;fill:#0ff"/>
    <ellipse transform="rotate(-90)" cx="-233.37" cy="69.862" rx="31.215" ry="31.215" style="fill-rule:evenodd;fill:#000067"/>
    <ellipse transform="rotate(-90)" cx="-151.62" cy="50.538" rx="50.538" ry="50.538" style="fill-rule:evenodd;fill:#006700"/>
    <ellipse transform="rotate(-90)" cx="-182.83" cy="182.83" rx="81.753" ry="81.753" style="fill-rule:evenodd;fill:#000080"/>
    <path d="m3.7354 4.0021e-6a132.29 132.29 0 0 0 128.56 101.08 132.29 132.29 0 0 0 0.0188 0 132.29 132.29 0 0 0 128.54-101.08z" style="fill-rule:evenodd;fill:#008000"/>
   </g>
   <g transform="matrix(.5 0 0 .5 132.29 -1.6806e-6)" style="stroke-width:7.8185">
    <ellipse transform="rotate(-90)" cx="-263.1" cy="1.4864" rx="1.4864" ry="1.4864" style="fill-rule:evenodd;fill:#00001c"/>
    <ellipse transform="rotate(-90)" cx="-263.1" cy="4.4593" rx="1.4864" ry="1.4864" style="fill-rule:evenodd;fill:#001c00"/>
    <ellipse transform="rotate(-90)" cx="-258.64" cy="2.9729" rx="2.9728" ry="2.9728" style="fill-rule:evenodd;fill:#000035"/>
    <ellipse transform="rotate(-90)" cx="-260.12" cy="10.405" rx="4.4593" ry="4.4593" style="fill-rule:evenodd;fill:#003500"/>
    <ellipse transform="rotate(-90)" cx="-248.23" cy="7.4321" rx="7.4321" ry="7.4321" style="fill-rule:evenodd;fill:#00004d"/>
    <ellipse transform="rotate(-90)" cx="-252.69" cy="26.756" rx="11.891" ry="11.891" style="fill-rule:evenodd;fill:#004d00"/>
    <ellipse transform="rotate(-90)" cx="-221.48" cy="19.324" rx="19.324" ry="19.324" style="fill-rule:evenodd;fill:#0ff"/>
    <ellipse transform="rotate(-90)" cx="-233.37" cy="69.862" rx="31.215" ry="31.215" style="fill-rule:evenodd;fill:#000067"/>
    <ellipse transform="rotate(-90)" cx="-151.62" cy="50.538" rx="50.538" ry="50.538" style="fill-rule:evenodd;fill:#006700"/>
    <ellipse transform="rotate(-90)" cx="-182.83" cy="182.83" rx="81.753" ry="81.753" style="fill-rule:evenodd;fill:#000080"/>
    <path d="m3.7354 4.0021e-6a132.29 132.29 0 0 0 128.56 101.08 132.29 132.29 0 0 0 0.0188 0 132.29 132.29 0 0 0 128.54-101.08z" style="fill-rule:evenodd;fill:#008000"/>
   </g>
   <g transform="matrix(0 .5 -.5 0 264.58 132.29)" style="stroke-width:7.8185">
    <ellipse transform="rotate(-90)" cx="-263.1" cy="1.4864" rx="1.4864" ry="1.4864" style="fill-rule:evenodd;fill:#00001c"/>
    <ellipse transform="rotate(-90)" cx="-263.1" cy="4.4593" rx="1.4864" ry="1.4864" style="fill-rule:evenodd;fill:#001c00"/>
    <ellipse transform="rotate(-90)" cx="-258.64" cy="2.9729" rx="2.9728" ry="2.9728" style="fill-rule:evenodd;fill:#000035"/>
    <ellipse transform="rotate(-90)" cx="-260.12" cy="10.405" rx="4.4593" ry="4.4593" style="fill-rule:evenodd;fill:#003500"/>
    <ellipse transform="rotate(-90)" cx="-248.23" cy="7.4321" rx="7.4321" ry="7.4321" style="fill-rule:evenodd;fill:#00004d"/>
    <ellipse transform="rotate(-90)" cx="-252.69" cy="26.756" rx="11.891" ry="11.891" style="fill-rule:evenodd;fill:#004d00"/>
    <ellipse transform="rotate(-90)" cx="-221.48" cy="19.324" rx="19.324" ry="19.324" style="fill-rule:evenodd;fill:#0ff"/>
    <ellipse transform="rotate(-90)" cx="-233.37" cy="69.862" rx="31.215" ry="31.215" style="fill-rule:evenodd;fill:#000067"/>
    <ellipse transform="rotate(-90)" cx="-151.62" cy="50.538" rx="50.538" ry="50.538" style="fill-rule:evenodd;fill:#006700"/>
    <ellipse transform="rotate(-90)" cx="-182.83" cy="182.83" rx="81.753" ry="81.753" style="fill-rule:evenodd;fill:#000080"/>
    <path d="m3.7354 4.0021e-6a132.29 132.29 0 0 0 128.56 101.08 132.29 132.29 0 0 0 0.0188 0 132.29 132.29 0 0 0 128.54-101.08z" style="fill-rule:evenodd;fill:#008000"/>
   </g>
   <g transform="matrix(-.5 0 0 -.5 132.29 264.58)" style="stroke-width:7.8185">
    <ellipse transform="rotate(-90)" cx="-263.1" cy="1.4864" rx="1.4864" ry="1.4864" style="fill-rule:evenodd;fill:#00001c"/>
    <ellipse transform="rotate(-90)" cx="-263.1" cy="4.4593" rx="1.4864" ry="1.4864" style="fill-rule:evenodd;fill:#001c00"/>
    <ellipse transform="rotate(-90)" cx="-258.64" cy="2.9729" rx="2.9728" ry="2.9728" style="fill-rule:evenodd;fill:#000035"/>
    <ellipse transform="rotate(-90)" cx="-260.12" cy="10.405" rx="4.4593" ry="4.4593" style="fill-rule:evenodd;fill:#003500"/>
    <ellipse transform="rotate(-90)" cx="-248.23" cy="7.4321" rx="7.4321" ry="7.4321" style="fill-rule:evenodd;fill:#00004d"/>
    <ellipse transform="rotate(-90)" cx="-252.69" cy="26.756" rx="11.891" ry="11.891" style="fill-rule:evenodd;fill:#004d00"/>
    <ellipse transform="rotate(-90)" cx="-221.48" cy="19.324" rx="19.324" ry="19.324" style="fill-rule:evenodd;fill:#0ff"/>
    <ellipse transform="rotate(-90)" cx="-233.37" cy="69.862" rx="31.215" ry="31.215" style="fill-rule:evenodd;fill:#000067"/>
    <ellipse transform="rotate(-90)" cx="-151.62" cy="50.538" rx="50.538" ry="50.538" style="fill-rule:evenodd;fill:#006700"/>
    <ellipse transform="rotate(-90)" cx="-182.83" cy="182.83" rx="81.753" ry="81.753" style="fill-rule:evenodd;fill:#000080"/>
    <path d="m3.7354 4.0021e-6a132.29 132.29 0 0 0 128.56 101.08 132.29 132.29 0 0 0 0.0188 0 132.29 132.29 0 0 0 128.54-101.08z" style="fill-rule:evenodd;fill:#008000"/>
   </g>
  </g>
  <g transform="matrix(.76973 0 0 .76973 14.814 180.07)" clip-path="url(#clipPath2379)">
   <g transform="matrix(.45538 0 0 .45538 -12.657 -110.66)">
    <ellipse transform="scale(-1)" cx="-72.837" cy="107.11" rx=".5428" ry=".5428" style="fill-rule:evenodd;fill:#404040"/>
    <ellipse transform="scale(-1)" cx="-72.837" cy="108.19" rx=".5428" ry=".5428" style="fill-rule:evenodd;fill:#7f7f7f"/>
    <ellipse transform="scale(-1)" cx="-71.208" cy="107.65" rx="1.0856" ry="1.0856" style="fill-rule:evenodd;fill:#303030"/>
    <ellipse transform="scale(-1)" cx="-71.751" cy="110.36" rx="1.6284" ry="1.6284" style="fill-rule:evenodd;fill:#9f9f9f"/>
    <ellipse transform="scale(-1)" cx="-67.409" cy="109.28" rx="2.714" ry="2.714" style="fill-rule:evenodd;fill:#202020"/>
    <ellipse transform="scale(-1)" cx="-69.037" cy="116.34" rx="4.3424" ry="4.3424" style="fill-rule:evenodd;fill:#bfbfbf"/>
    <ellipse transform="scale(-1)" cx="-57.638" cy="113.62" rx="7.0564" ry="7.0564" style="fill-rule:evenodd;fill:#808080"/>
    <ellipse transform="scale(-1)" cx="-61.981" cy="132.08" rx="11.399" ry="11.399" style="fill-rule:evenodd;fill:#101010"/>
    <ellipse transform="scale(-1)" cx="-32.126" cy="125.02" rx="18.455" ry="18.455" style="fill-rule:evenodd;fill:#dfdfdf"/>
    <ellipse transform="scale(-1)" cx="-43.525" cy="173.33" rx="29.854" ry="29.854" style="fill-rule:evenodd"/>
    <path d="m-23.239-107.93a48.309 48.309 0 0 0 36.911-46.945 48.309 48.309 0 0 0 0-7e-3 48.309 48.309 0 0 0-36.911-46.938z" style="fill-rule:evenodd;fill:#fff"/>
   </g>
   <g transform="matrix(0 .45538 -.45538 0 -27.769 -192.6)">
    <ellipse transform="scale(-1)" cx="-72.837" cy="107.11" rx=".5428" ry=".5428" style="fill-rule:evenodd;fill:#404040"/>
    <ellipse transform="scale(-1)" cx="-72.837" cy="108.19" rx=".5428" ry=".5428" style="fill-rule:evenodd;fill:#7f7f7f"/>
    <ellipse transform="scale(-1)" cx="-71.208" cy="107.65" rx="1.0856" ry="1.0856" style="fill-rule:evenodd;fill:#303030"/>
    <ellipse transform="scale(-1)" cx="-71.751" cy="110.36" rx="1.6284" ry="1.6284" style="fill-rule:evenodd;fill:#9f9f9f"/>
    <ellipse transform="scale(-1)" cx="-67.409" cy="109.28" rx="2.714" ry="2.714" style="fill-rule:evenodd;fill:#202020"/>
    <ellipse transform="scale(-1)" cx="-69.037" cy="116.34" rx="4.3424" ry="4.3424" style="fill-rule:evenodd;fill:#bfbfbf"/>
    <ellipse transform="scale(-1)" cx="-57.638" cy="113.62" rx="7.0564" ry="7.0564" style="fill-rule:evenodd;fill:#808080"/>
    <ellipse transform="scale(-1)" cx="-61.981" cy="132.08" rx="11.399" ry="11.399" style="fill-rule:evenodd;fill:#101010"/>
    <ellipse transform="scale(-1)" cx="-32.126" cy="125.02" rx="18.455" ry="18.455" style="fill-rule:evenodd;fill:#dfdfdf"/>
    <ellipse transform="scale(-1)" cx="-43.525" cy="173.33" rx="29.854" ry="29.854" style="fill-rule:evenodd"/>
    <path d="m-23.239-107.93a48.309 48.309 0 0 0 36.911-46.945 48.309 48.309 0 0 0 0-7e-3 48.309 48.309 0 0 0-36.911-46.938z" style="fill-rule:evenodd;fill:#fff"/>
   </g>
   <g transform="matrix(-.45538 0 0 -.45538 54.174 -207.71)">
    <ellipse transform="scale(-1)" cx="-72.837" cy="107.11" rx=".5428" ry=".5428" style="fill-rule:evenodd;fill:#404040"/>
    <ellipse transform="scale(-1)" cx="-72.837" cy="108.19" rx=".5428" ry=".5428" style="fill-rule:evenodd;fill:#7f7f7f"/>
    <ellipse transform="scale(-1)" cx="-71.208" cy="107.65" rx="1.0856" ry="1.0856" style="fill-rule:evenodd;fill:#303030"/>
    <ellipse transform="scale(-1)" cx="-71.751" cy="110.36" rx="1.6284" ry="1.6284" style="fill-rule:evenodd;fill:#9f9f9f"/>
    <ellipse transform="scale(-1)" cx="-67.409" cy="109.28" rx="2.714" ry="2.714" style="fill-rule:evenodd;fill:#202020"/>
    <ellipse transform="scale(-1)" cx="-69.037" cy="116.34" rx="4.3424" ry="4.3424" style="fill-rule:evenodd;fill:#bfbfbf"/>
    <ellipse transform="scale(-1)" cx="-57.638" cy="113.62" rx="7.0564" ry="7.0564" style="fill-rule:evenodd;fill:#808080"/>
    <ellipse transform="scale(-1)" cx="-61.981" cy="132.08" rx="11.399" ry="11.399" style="fill-rule:evenodd;fill:#101010"/>
    <ellipse transform="scale(-1)" cx="-32.126" cy="125.02" rx="18.455" ry="18.455" style="fill-rule:evenodd;fill:#dfdfdf"/>
    <ellipse transform="scale(-1)" cx="-43.525" cy="173.33" rx="29.854" ry="29.854" style="fill-rule:evenodd"/>
    <path d="m-23.239-107.93a48.309 48.309 0 0 0 36.911-46.945 48.309 48.309 0 0 0 0-7e-3 48.309 48.309 0 0 0-36.911-46.938z" style="fill-rule:evenodd;fill:#fff"/>
   </g>
   <g transform="matrix(0 -.45538 .45538 0 69.286 -125.77)">
    <ellipse transform="scale(-1)" cx="-72.837" cy="107.11" rx=".5428" ry=".5428" style="fill-rule:evenodd;fill:#404040"/>
    <ellipse transform="scale(-1)" cx="-72.837" cy="108.19" rx=".5428" ry=".5428" style="fill-rule:evenodd;fill:#7f7f7f"/>
    <ellipse transform="scale(-1)" cx="-71.208" cy="107.65" rx="1.0856" ry="1.0856" style="fill-rule:evenodd;fill:#303030"/>
    <ellipse transform="scale(-1)" cx="-71.751" cy="110.36" rx="1.6284" ry="1.6284" style="fill-rule:evenodd;fill:#9f9f9f"/>
    <ellipse transform="scale(-1)" cx="-67.409" cy="109.28" rx="2.714" ry="2.714" style="fill-rule:evenodd;fill:#202020"/>
    <ellipse transform="scale(-1)" cx="-69.037" cy="116.34" rx="4.3424" ry="4.3424" style="fill-rule:evenodd;fill:#bfbfbf"/>
    <ellipse transform="scale(-1)" cx="-57.638" cy="113.62" rx="7.0564" ry="7.0564" style="fill-rule:evenodd;fill:#808080"/>
    <ellipse transform="scale(-1)" cx="-61.981" cy="132.08" rx="11.399" ry="11.399" style="fill-rule:evenodd;fill:#101010"/>
    <ellipse transform="scale(-1)" cx="-32.126" cy="125.02" rx="18.455" ry="18.455" style="fill-rule:evenodd;fill:#dfdfdf"/>
    <ellipse transform="scale(-1)" cx="-43.525" cy="173.33" rx="29.854" ry="29.854" style="fill-rule:evenodd"/>
    <path d="m-23.239-107.93a48.309 48.309 0 0 0 36.911-46.945 48.309 48.309 0 0 0 0-7e-3 48.309 48.309 0 0 0-36.911-46.938z" style="fill-rule:evenodd;fill:#fff"/>
   </g>
  </g>
  <text transform="scale(.99986 1.0001)" x="81.474281" y="59.299034" style="fill:#000000;font-family:'Lucida Console';font-size:52.155px;letter-spacing:2.8797px;line-height:0;stroke-width:.26475;word-spacing:35.911px" xml:space="preserve"><tspan x="81.474281" y="59.299034" style="fill:#000000;font-family:'Bauhaus 93';letter-spacing:0px;line-height:40.25;stroke-width:.26475">Prakhar</tspan></text>
  <g transform="translate(.049733)" style="fill:#fff">
   <path d="m84.189 90.998v-14.973q0-2.7846 1.689-4.5497 1.689-1.7651 4.3823-1.7651 3.1955 0 4.9149 2.9368 1.0499-1.5825 2.252-2.252 1.2021-0.68474 2.9672-0.68474 2.7998 0 4.291 1.7651 1.4912 1.7651 1.4912 5.0823v14.44h-6.1779v-13.512q0-1.0043-0.16738-1.3238-0.15216-0.33476-0.63909-0.33476-0.91299 0-0.91299 1.5521v13.619h-6.1779v-13.512q0-0.98907-0.16738-1.3238-0.16739-0.33476-0.65432-0.33476-0.91298 0-0.91298 1.6586v13.512z" style="fill:#fff;stroke-width:.26478"/>
   <path d="m129.62 85.307v5.8888q-0.69996 0.12173-1.2782 0.12173-3.4237 0-5.7062-2.252t-2.2825-5.6453q0-3.302 2.2977-5.5996 2.3129-2.2977 5.6149-2.2977 3.6824 0 5.7975 2.1607 2.1303 2.1455 2.1303 5.8735v7.4408h-5.6909v-7.03q0-1.2021-0.59345-1.9173-0.57822-0.71518-1.5673-0.71518-0.89778 0-1.5521 0.65431-0.6543 0.6543-0.6543 1.5521 0 0.94342 0.59344 1.5521 0.59344 0.60866 1.5064 0.60866 0.7456 0 1.3847-0.39563z" style="fill:#fff;stroke-width:.26478"/>
   <path d="m161.33 76.04v5.9953q-1.2021 0-1.6586 0.4565-0.44128 0.44127-0.56301 1.7651-0.39563 4.3976-3.4085 6.2083-1.5977 0.94342-4.5345 0.94342h-0.79125v-6.0257h0.25868q1.3695 0 1.9477-0.56302 0.59344-0.57822 0.68474-2.0086 0.12173-2.3281 0.42606-3.2715 0.31955-0.94342 1.2782-1.8716 1.6738-1.6282 4.641-1.6282z" style="fill:#fff;stroke-width:.26478"/>
   <path d="m181.19 70.227v5.8127h2.5564v6.0105h-2.5564q0 1.8108 0.563 2.4955 0.57823 0.68474 2.0999 0.68474v5.9801q-0.44127 0.01521-0.6543 0.01521-1.9325 0-3.652-0.89777-1.7042-0.89777-2.739-2.4346-1.3086-1.9629-1.3086-5.204v-12.462z" style="fill:#fff;stroke-width:.26478"/>
   <path d="m207.3 85.307v5.8888q-0.69996 0.12173-1.2782 0.12173-3.4237 0-5.7062-2.252-2.2825-2.252-2.2825-5.6453 0-3.302 2.2977-5.5996 2.3129-2.2977 5.6149-2.2977 3.6824 0 5.7975 2.1607 2.1303 2.1455 2.1303 5.8735v7.4408h-5.6909v-7.03q0-1.2021-0.59345-1.9173-0.57822-0.71518-1.5673-0.71518-0.89776 0-1.5521 0.65431-0.65431 0.6543-0.65431 1.5521 0 0.94342 0.59344 1.5521 0.59344 0.60866 1.5064 0.60866 0.74561 0 1.3847-0.39563z" style="fill:#fff;stroke-width:.26478"/>
   <path d="m233.74 75.827v15.171h-5.691v-15.171zm-2.8303-6.7713q1.1564 0 1.9934 0.82168 0.85212 0.80647 0.85212 1.9173 0 1.1869-0.80647 1.9477-0.79125 0.76082-2.039 0.76082t-2.0542-0.76082q-0.79125-0.76082-0.79125-1.9477 0-1.1108 0.8369-1.9173 0.85212-0.82168 2.0086-0.82168z" style="fill:#fff;stroke-width:.26478"/>
   <path d="m261.46 90.998h-5.691v-8.5669q0-1.3086-1.0804-1.3086-1.0652 0-1.0652 1.3086v8.5669h-5.691v-8.4603q0-2.9672 1.9629-4.991 1.9629-2.039 4.8084-2.039 3.2563 0 5.2192 2.3585 1.5369 1.8412 1.5369 5.1279z" style="fill:#fff;stroke-width:.26478"/>
  </g>
  <g transform="matrix(.22353 0 0 .22353 80.77 130.46)">
   <g transform="matrix(1.0008 0 0 1.0008 -326.36 -44.02)" clip-path="url(#clipPath1777)">
    <ellipse transform="scale(-1)" cx="-356.69" cy="-101.29" rx=".19012" ry=".19012" style="fill-rule:evenodd;fill:#000016"/>
    <ellipse transform="scale(-1)" cx="-356.69" cy="-100.91" rx=".19012" ry=".19012" style="fill-rule:evenodd;fill:#203012"/>
    <ellipse transform="scale(-1)" cx="-356.12" cy="-101.1" rx=".38023" ry=".38023" style="fill-rule:evenodd;fill:#00012c"/>
    <ellipse transform="scale(-1)" cx="-356.31" cy="-100.15" rx=".57035" ry=".57035" style="fill-rule:evenodd;fill:#406124"/>
    <ellipse transform="scale(-1)" cx="-354.79" cy="-100.53" rx=".95059" ry=".95059" style="fill-rule:evenodd;fill:#000241"/>
    <ellipse transform="scale(-1)" cx="-355.36" cy="-98.062" rx="1.5209" ry="1.5209" style="fill-rule:evenodd;fill:#619136"/>
    <ellipse transform="scale(-1)" cx="-351.37" cy="-99.013" rx="2.4715" ry="2.4715" style="fill-rule:evenodd;fill:#a1f7c7"/>
    <ellipse transform="scale(-1)" cx="-352.89" cy="-92.549" rx="3.9925" ry="3.9925" style="fill-rule:evenodd;fill:#000357"/>
    <ellipse transform="scale(-1)" cx="-342.43" cy="-95.021" rx="6.464" ry="6.464" style="fill-rule:evenodd;fill:#81c248"/>
    <ellipse transform="scale(-1)" cx="-346.42" cy="-78.1" rx="10.456" ry="10.456" style="fill-rule:evenodd;fill:#00046d"/>
    <path d="m323.04 101.01a16.92 16.92 0 0 0 12.928-16.443 16.92 16.92 0 0 0 0-0.0024 16.92 16.92 0 0 0-12.928-16.44z" style="fill-rule:evenodd;fill:#a1f390"/>
    <g transform="rotate(90 356.88 101.48)">
     <ellipse transform="scale(-1)" cx="-356.69" cy="-101.29" rx=".19012" ry=".19012" style="fill-rule:evenodd;fill:#000016"/>
     <ellipse transform="scale(-1)" cx="-356.69" cy="-100.91" rx=".19012" ry=".19012" style="fill-rule:evenodd;fill:#203012"/>
     <ellipse transform="scale(-1)" cx="-356.12" cy="-101.1" rx=".38023" ry=".38023" style="fill-rule:evenodd;fill:#00012c"/>
     <ellipse transform="scale(-1)" cx="-356.31" cy="-100.15" rx=".57035" ry=".57035" style="fill-rule:evenodd;fill:#406124"/>
     <ellipse transform="scale(-1)" cx="-354.79" cy="-100.53" rx=".95059" ry=".95059" style="fill-rule:evenodd;fill:#000241"/>
     <ellipse transform="scale(-1)" cx="-355.36" cy="-98.062" rx="1.5209" ry="1.5209" style="fill-rule:evenodd;fill:#619136"/>
     <ellipse transform="scale(-1)" cx="-351.37" cy="-99.013" rx="2.4715" ry="2.4715" style="fill-rule:evenodd;fill:#a1f7c7"/>
     <ellipse transform="scale(-1)" cx="-352.89" cy="-92.549" rx="3.9925" ry="3.9925" style="fill-rule:evenodd;fill:#000357"/>
     <ellipse transform="scale(-1)" cx="-342.43" cy="-95.021" rx="6.464" ry="6.464" style="fill-rule:evenodd;fill:#81c248"/>
     <ellipse transform="scale(-1)" cx="-346.42" cy="-78.1" rx="10.456" ry="10.456" style="fill-rule:evenodd;fill:#00046d"/>
     <path d="m323.04 101.01a16.92 16.92 0 0 0 12.928-16.443 16.92 16.92 0 0 0 0-0.0024 16.92 16.92 0 0 0-12.928-16.44z" style="fill-rule:evenodd;fill:#a1f390"/>
    </g>
    <g transform="rotate(180 356.88 101.48)">
     <ellipse transform="scale(-1)" cx="-356.69" cy="-101.29" rx=".19012" ry=".19012" style="fill-rule:evenodd;fill:#000016"/>
     <ellipse transform="scale(-1)" cx="-356.69" cy="-100.91" rx=".19012" ry=".19012" style="fill-rule:evenodd;fill:#203012"/>
     <ellipse transform="scale(-1)" cx="-356.12" cy="-101.1" rx=".38023" ry=".38023" style="fill-rule:evenodd;fill:#00012c"/>
     <ellipse transform="scale(-1)" cx="-356.31" cy="-100.15" rx=".57035" ry=".57035" style="fill-rule:evenodd;fill:#406124"/>
     <ellipse transform="scale(-1)" cx="-354.79" cy="-100.53" rx=".95059" ry=".95059" style="fill-rule:evenodd;fill:#000241"/>
     <ellipse transform="scale(-1)" cx="-355.36" cy="-98.062" rx="1.5209" ry="1.5209" style="fill-rule:evenodd;fill:#619136"/>
     <ellipse transform="scale(-1)" cx="-351.37" cy="-99.013" rx="2.4715" ry="2.4715" style="fill-rule:evenodd;fill:#a1f7c7"/>
     <ellipse transform="scale(-1)" cx="-352.89" cy="-92.549" rx="3.9925" ry="3.9925" style="fill-rule:evenodd;fill:#000357"/>
     <ellipse transform="scale(-1)" cx="-342.43" cy="-95.021" rx="6.464" ry="6.464" style="fill-rule:evenodd;fill:#81c248"/>
     <ellipse transform="scale(-1)" cx="-346.42" cy="-78.1" rx="10.456" ry="10.456" style="fill-rule:evenodd;fill:#00046d"/>
     <path d="m323.04 101.01a16.92 16.92 0 0 0 12.928-16.443 16.92 16.92 0 0 0 0-0.0024 16.92 16.92 0 0 0-12.928-16.44z" style="fill-rule:evenodd;fill:#a1f390"/>
    </g>
    <g transform="rotate(-90 356.88 101.48)">
     <ellipse transform="scale(-1)" cx="-356.69" cy="-101.29" rx=".19012" ry=".19012" style="fill-rule:evenodd;fill:#000016"/>
     <ellipse transform="scale(-1)" cx="-356.69" cy="-100.91" rx=".19012" ry=".19012" style="fill-rule:evenodd;fill:#203012"/>
     <ellipse transform="scale(-1)" cx="-356.12" cy="-101.1" rx=".38023" ry=".38023" style="fill-rule:evenodd;fill:#00012c"/>
     <ellipse transform="scale(-1)" cx="-356.31" cy="-100.15" rx=".57035" ry=".57035" style="fill-rule:evenodd;fill:#406124"/>
     <ellipse transform="scale(-1)" cx="-354.79" cy="-100.53" rx=".95059" ry=".95059" style="fill-rule:evenodd;fill:#000241"/>
     <ellipse transform="scale(-1)" cx="-355.36" cy="-98.062" rx="1.5209" ry="1.5209" style="fill-rule:evenodd;fill:#619136"/>
     <ellipse transform="scale(-1)" cx="-351.37" cy="-99.013" rx="2.4715" ry="2.4715" style="fill-rule:evenodd;fill:#a1f7c7"/>
     <ellipse transform="scale(-1)" cx="-352.89" cy="-92.549" rx="3.9925" ry="3.9925" style="fill-rule:evenodd;fill:#000357"/>
     <ellipse transform="scale(-1)" cx="-342.43" cy="-95.021" rx="6.464" ry="6.464" style="fill-rule:evenodd;fill:#81c248"/>
     <ellipse transform="scale(-1)" cx="-346.42" cy="-78.1" rx="10.456" ry="10.456" style="fill-rule:evenodd;fill:#00046d"/>
     <path d="m323.04 101.01a16.92 16.92 0 0 0 12.928-16.443 16.92 16.92 0 0 0 0-0.0024 16.92 16.92 0 0 0-12.928-16.44z" style="fill-rule:evenodd;fill:#a1f390"/>
    </g>
   </g>
   <g transform="translate(.049733)">
    <text transform="scale(.99986 1.0001)" x="81.424545" y="59.299034" style="fill:#00046d;font-family:'Lucida Console';font-size:52.155px;letter-spacing:2.8797px;line-height:0;stroke-width:.26475;word-spacing:35.911px" xml:space="preserve"><tspan x="81.424545" y="59.299034" style="fill:#00046d;font-family:'Bauhaus 93';letter-spacing:0px;line-height:40.25;stroke-width:.26475">Prakhar</tspan></text>
    <path d="m84.189 90.998v-14.973q0-2.7846 1.689-4.5497 1.689-1.7651 4.3823-1.7651 3.1955 0 4.9149 2.9368 1.0499-1.5825 2.252-2.252 1.2021-0.68474 2.9672-0.68474 2.7998 0 4.291 1.7651 1.4912 1.7651 1.4912 5.0823v14.44h-6.1779v-13.512q0-1.0043-0.16738-1.3238-0.15216-0.33476-0.63909-0.33476-0.91299 0-0.91299 1.5521v13.619h-6.1779v-13.512q0-0.98907-0.16738-1.3238-0.16739-0.33476-0.65432-0.33476-0.91298 0-0.91298 1.6586v13.512z" style="fill:#a1f390;stroke-width:.26478"/>
    <path d="m129.62 85.307v5.8888q-0.69996 0.12173-1.2782 0.12173-3.4237 0-5.7062-2.252t-2.2825-5.6453q0-3.302 2.2977-5.5996 2.3129-2.2977 5.6149-2.2977 3.6824 0 5.7975 2.1607 2.1303 2.1455 2.1303 5.8735v7.4408h-5.6909v-7.03q0-1.2021-0.59345-1.9173-0.57822-0.71518-1.5673-0.71518-0.89778 0-1.5521 0.65431-0.6543 0.6543-0.6543 1.5521 0 0.94342 0.59344 1.5521 0.59344 0.60866 1.5064 0.60866 0.7456 0 1.3847-0.39563z" style="fill:#a1f390;stroke-width:.26478"/>
    <path d="m161.33 76.04v5.9953q-1.2021 0-1.6586 0.4565-0.44128 0.44127-0.56301 1.7651-0.39563 4.3976-3.4085 6.2083-1.5977 0.94342-4.5345 0.94342h-0.79125v-6.0257h0.25868q1.3695 0 1.9477-0.56302 0.59344-0.57822 0.68474-2.0086 0.12173-2.3281 0.42606-3.2715 0.31955-0.94342 1.2782-1.8716 1.6738-1.6282 4.641-1.6282z" style="fill:#a1f390;stroke-width:.26478"/>
    <path d="m181.19 70.227v5.8127h2.5564v6.0105h-2.5564q0 1.8108 0.563 2.4955 0.57823 0.68474 2.0999 0.68474v5.9801q-0.44127 0.01521-0.6543 0.01521-1.9325 0-3.652-0.89777-1.7042-0.89777-2.739-2.4346-1.3086-1.9629-1.3086-5.204v-12.462z" style="fill:#a1f390;stroke-width:.26478"/>
    <path d="m207.3 85.307v5.8888q-0.69996 0.12173-1.2782 0.12173-3.4237 0-5.7062-2.252-2.2825-2.252-2.2825-5.6453 0-3.302 2.2977-5.5996 2.3129-2.2977 5.6149-2.2977 3.6824 0 5.7975 2.1607 2.1303 2.1455 2.1303 5.8735v7.4408h-5.6909v-7.03q0-1.2021-0.59345-1.9173-0.57822-0.71518-1.5673-0.71518-0.89776 0-1.5521 0.65431-0.65431 0.6543-0.65431 1.5521 0 0.94342 0.59344 1.5521 0.59344 0.60866 1.5064 0.60866 0.74561 0 1.3847-0.39563z" style="fill:#a1f390;stroke-width:.26478"/>
    <path d="m233.74 75.827v15.171h-5.691v-15.171zm-2.8303-6.7713q1.1564 0 1.9934 0.82168 0.85212 0.80647 0.85212 1.9173 0 1.1869-0.80647 1.9477-0.79125 0.76082-2.039 0.76082t-2.0542-0.76082q-0.79125-0.76082-0.79125-1.9477 0-1.1108 0.8369-1.9173 0.85212-0.82168 2.0086-0.82168z" style="fill:#a1f390;stroke-width:.26478"/>
    <path d="m261.46 90.998h-5.691v-8.5669q0-1.3086-1.0804-1.3086-1.0652 0-1.0652 1.3086v8.5669h-5.691v-8.4603q0-2.9672 1.9629-4.991 1.9629-2.039 4.8084-2.039 3.2563 0 5.2192 2.3585 1.5369 1.8412 1.5369 5.1279z" style="fill:#a1f390;stroke-width:.26478"/>
   </g>
  </g>
  <g transform="matrix(.47712 0 0 .47712 -2.827 90.145)" clip-path="url(#clipPath1777)">
   <ellipse transform="scale(-1)" cx="-356.69" cy="-101.29" rx=".19012" ry=".19012" style="fill-rule:evenodd;fill:#000016"/>
   <ellipse transform="scale(-1)" cx="-356.69" cy="-100.91" rx=".19012" ry=".19012" style="fill-rule:evenodd;fill:#203012"/>
   <ellipse transform="scale(-1)" cx="-356.12" cy="-101.1" rx=".38023" ry=".38023" style="fill-rule:evenodd;fill:#00012c"/>
   <ellipse transform="scale(-1)" cx="-356.31" cy="-100.15" rx=".57035" ry=".57035" style="fill-rule:evenodd;fill:#406124"/>
   <ellipse transform="scale(-1)" cx="-354.79" cy="-100.53" rx=".95059" ry=".95059" style="fill-rule:evenodd;fill:#000241"/>
   <ellipse transform="scale(-1)" cx="-355.36" cy="-98.062" rx="1.5209" ry="1.5209" style="fill-rule:evenodd;fill:#619136"/>
   <ellipse transform="scale(-1)" cx="-351.37" cy="-99.013" rx="2.4715" ry="2.4715" style="fill-rule:evenodd;fill:#a1f7c7"/>
   <ellipse transform="scale(-1)" cx="-352.89" cy="-92.549" rx="3.9925" ry="3.9925" style="fill-rule:evenodd;fill:#000357"/>
   <ellipse transform="scale(-1)" cx="-342.43" cy="-95.021" rx="6.464" ry="6.464" style="fill-rule:evenodd;fill:#81c248"/>
   <ellipse transform="scale(-1)" cx="-346.42" cy="-78.1" rx="10.456" ry="10.456" style="fill-rule:evenodd;fill:#00046d"/>
   <path d="m323.04 101.01a16.92 16.92 0 0 0 12.928-16.443 16.92 16.92 0 0 0 0-0.0024 16.92 16.92 0 0 0-12.928-16.44z" style="fill-rule:evenodd;fill:#a1f390"/>
   <g transform="rotate(90 356.88 101.48)">
    <ellipse transform="scale(-1)" cx="-356.69" cy="-101.29" rx=".19012" ry=".19012" style="fill-rule:evenodd;fill:#000016"/>
    <ellipse transform="scale(-1)" cx="-356.69" cy="-100.91" rx=".19012" ry=".19012" style="fill-rule:evenodd;fill:#203012"/>
    <ellipse transform="scale(-1)" cx="-356.12" cy="-101.1" rx=".38023" ry=".38023" style="fill-rule:evenodd;fill:#00012c"/>
    <ellipse transform="scale(-1)" cx="-356.31" cy="-100.15" rx=".57035" ry=".57035" style="fill-rule:evenodd;fill:#406124"/>
    <ellipse transform="scale(-1)" cx="-354.79" cy="-100.53" rx=".95059" ry=".95059" style="fill-rule:evenodd;fill:#000241"/>
    <ellipse transform="scale(-1)" cx="-355.36" cy="-98.062" rx="1.5209" ry="1.5209" style="fill-rule:evenodd;fill:#619136"/>
    <ellipse transform="scale(-1)" cx="-351.37" cy="-99.013" rx="2.4715" ry="2.4715" style="fill-rule:evenodd;fill:#a1f7c7"/>
    <ellipse transform="scale(-1)" cx="-352.89" cy="-92.549" rx="3.9925" ry="3.9925" style="fill-rule:evenodd;fill:#000357"/>
    <ellipse transform="scale(-1)" cx="-342.43" cy="-95.021" rx="6.464" ry="6.464" style="fill-rule:evenodd;fill:#81c248"/>
    <ellipse transform="scale(-1)" cx="-346.42" cy="-78.1" rx="10.456" ry="10.456" style="fill-rule:evenodd;fill:#00046d"/>
    <path d="m323.04 101.01a16.92 16.92 0 0 0 12.928-16.443 16.92 16.92 0 0 0 0-0.0024 16.92 16.92 0 0 0-12.928-16.44z" style="fill-rule:evenodd;fill:#a1f390"/>
   </g>
   <g transform="rotate(180 356.88 101.48)">
    <ellipse transform="scale(-1)" cx="-356.69" cy="-101.29" rx=".19012" ry=".19012" style="fill-rule:evenodd;fill:#000016"/>
    <ellipse transform="scale(-1)" cx="-356.69" cy="-100.91" rx=".19012" ry=".19012" style="fill-rule:evenodd;fill:#203012"/>
    <ellipse transform="scale(-1)" cx="-356.12" cy="-101.1" rx=".38023" ry=".38023" style="fill-rule:evenodd;fill:#00012c"/>
    <ellipse transform="scale(-1)" cx="-356.31" cy="-100.15" rx=".57035" ry=".57035" style="fill-rule:evenodd;fill:#406124"/>
    <ellipse transform="scale(-1)" cx="-354.79" cy="-100.53" rx=".95059" ry=".95059" style="fill-rule:evenodd;fill:#000241"/>
    <ellipse transform="scale(-1)" cx="-355.36" cy="-98.062" rx="1.5209" ry="1.5209" style="fill-rule:evenodd;fill:#619136"/>
    <ellipse transform="scale(-1)" cx="-351.37" cy="-99.013" rx="2.4715" ry="2.4715" style="fill-rule:evenodd;fill:#a1f7c7"/>
    <ellipse transform="scale(-1)" cx="-352.89" cy="-92.549" rx="3.9925" ry="3.9925" style="fill-rule:evenodd;fill:#000357"/>
    <ellipse transform="scale(-1)" cx="-342.43" cy="-95.021" rx="6.464" ry="6.464" style="fill-rule:evenodd;fill:#81c248"/>
    <ellipse transform="scale(-1)" cx="-346.42" cy="-78.1" rx="10.456" ry="10.456" style="fill-rule:evenodd;fill:#00046d"/>
    <path d="m323.04 101.01a16.92 16.92 0 0 0 12.928-16.443 16.92 16.92 0 0 0 0-0.0024 16.92 16.92 0 0 0-12.928-16.44z" style="fill-rule:evenodd;fill:#a1f390"/>
   </g>
   <g transform="rotate(-90 356.88 101.48)">
    <ellipse transform="scale(-1)" cx="-356.69" cy="-101.29" rx=".19012" ry=".19012" style="fill-rule:evenodd;fill:#000016"/>
    <ellipse transform="scale(-1)" cx="-356.69" cy="-100.91" rx=".19012" ry=".19012" style="fill-rule:evenodd;fill:#203012"/>
    <ellipse transform="scale(-1)" cx="-356.12" cy="-101.1" rx=".38023" ry=".38023" style="fill-rule:evenodd;fill:#00012c"/>
    <ellipse transform="scale(-1)" cx="-356.31" cy="-100.15" rx=".57035" ry=".57035" style="fill-rule:evenodd;fill:#406124"/>
    <ellipse transform="scale(-1)" cx="-354.79" cy="-100.53" rx=".95059" ry=".95059" style="fill-rule:evenodd;fill:#000241"/>
    <ellipse transform="scale(-1)" cx="-355.36" cy="-98.062" rx="1.5209" ry="1.5209" style="fill-rule:evenodd;fill:#619136"/>
    <ellipse transform="scale(-1)" cx="-351.37" cy="-99.013" rx="2.4715" ry="2.4715" style="fill-rule:evenodd;fill:#a1f7c7"/>
    <ellipse transform="scale(-1)" cx="-352.89" cy="-92.549" rx="3.9925" ry="3.9925" style="fill-rule:evenodd;fill:#000357"/>
    <ellipse transform="scale(-1)" cx="-342.43" cy="-95.021" rx="6.464" ry="6.464" style="fill-rule:evenodd;fill:#81c248"/>
    <ellipse transform="scale(-1)" cx="-346.42" cy="-78.1" rx="10.456" ry="10.456" style="fill-rule:evenodd;fill:#00046d"/>
    <path d="m323.04 101.01a16.92 16.92 0 0 0 12.928-16.443 16.92 16.92 0 0 0 0-0.0024 16.92 16.92 0 0 0-12.928-16.44z" style="fill-rule:evenodd;fill:#a1f390"/>
   </g>
  </g>
  <g transform="matrix(.47742 0 0 .47742 155.23 112.63)">
   <text transform="scale(.99986 1.0001)" x="81.424545" y="59.299034" style="fill:#00046d;font-family:'Lucida Console';font-size:52.155px;letter-spacing:2.8797px;line-height:0;stroke-width:.26475;word-spacing:35.911px" xml:space="preserve"><tspan x="81.424545" y="59.299034" style="fill:#00046d;font-family:'Bauhaus 93';letter-spacing:0px;line-height:40.25;stroke-width:.26475">Prakhar</tspan></text>
   <path d="m84.189 90.998v-14.973q0-2.7846 1.689-4.5497 1.689-1.7651 4.3823-1.7651 3.1955 0 4.9149 2.9368 1.0499-1.5825 2.252-2.252 1.2021-0.68474 2.9672-0.68474 2.7998 0 4.291 1.7651 1.4912 1.7651 1.4912 5.0823v14.44h-6.1779v-13.512q0-1.0043-0.16738-1.3238-0.15216-0.33476-0.63909-0.33476-0.91299 0-0.91299 1.5521v13.619h-6.1779v-13.512q0-0.98907-0.16738-1.3238-0.16739-0.33476-0.65432-0.33476-0.91298 0-0.91298 1.6586v13.512z" style="fill:#a1f390;stroke-width:.26478"/>
   <path d="m129.62 85.307v5.8888q-0.69996 0.12173-1.2782 0.12173-3.4237 0-5.7062-2.252t-2.2825-5.6453q0-3.302 2.2977-5.5996 2.3129-2.2977 5.6149-2.2977 3.6824 0 5.7975 2.1607 2.1303 2.1455 2.1303 5.8735v7.4408h-5.6909v-7.03q0-1.2021-0.59345-1.9173-0.57822-0.71518-1.5673-0.71518-0.89778 0-1.5521 0.65431-0.6543 0.6543-0.6543 1.5521 0 0.94342 0.59344 1.5521 0.59344 0.60866 1.5064 0.60866 0.7456 0 1.3847-0.39563z" style="fill:#a1f390;stroke-width:.26478"/>
   <path d="m161.33 76.04v5.9953q-1.2021 0-1.6586 0.4565-0.44128 0.44127-0.56301 1.7651-0.39563 4.3976-3.4085 6.2083-1.5977 0.94342-4.5345 0.94342h-0.79125v-6.0257h0.25868q1.3695 0 1.9477-0.56302 0.59344-0.57822 0.68474-2.0086 0.12173-2.3281 0.42606-3.2715 0.31955-0.94342 1.2782-1.8716 1.6738-1.6282 4.641-1.6282z" style="fill:#a1f390;stroke-width:.26478"/>
   <path d="m181.19 70.227v5.8127h2.5564v6.0105h-2.5564q0 1.8108 0.563 2.4955 0.57823 0.68474 2.0999 0.68474v5.9801q-0.44127 0.01521-0.6543 0.01521-1.9325 0-3.652-0.89777-1.7042-0.89777-2.739-2.4346-1.3086-1.9629-1.3086-5.204v-12.462z" style="fill:#a1f390;stroke-width:.26478"/>
   <path d="m207.3 85.307v5.8888q-0.69996 0.12173-1.2782 0.12173-3.4237 0-5.7062-2.252-2.2825-2.252-2.2825-5.6453 0-3.302 2.2977-5.5996 2.3129-2.2977 5.6149-2.2977 3.6824 0 5.7975 2.1607 2.1303 2.1455 2.1303 5.8735v7.4408h-5.6909v-7.03q0-1.2021-0.59345-1.9173-0.57822-0.71518-1.5673-0.71518-0.89776 0-1.5521 0.65431-0.65431 0.6543-0.65431 1.5521 0 0.94342 0.59344 1.5521 0.59344 0.60866 1.5064 0.60866 0.74561 0 1.3847-0.39563z" style="fill:#a1f390;stroke-width:.26478"/>
   <path d="m233.74 75.827v15.171h-5.691v-15.171zm-2.8303-6.7713q1.1564 0 1.9934 0.82168 0.85212 0.80647 0.85212 1.9173 0 1.1869-0.80647 1.9477-0.79125 0.76082-2.039 0.76082t-2.0542-0.76082q-0.79125-0.76082-0.79125-1.9477 0-1.1108 0.8369-1.9173 0.85212-0.82168 2.0086-0.82168z" style="fill:#a1f390;stroke-width:.26478"/>
   <path d="m261.46 90.998h-5.691v-8.5669q0-1.3086-1.0804-1.3086-1.0652 0-1.0652 1.3086v8.5669h-5.691v-8.4603q0-2.9672 1.9629-4.991 1.9629-2.039 4.8084-2.039 3.2563 0 5.2192 2.3585 1.5369 1.8412 1.5369 5.1279z" style="fill:#a1f390;stroke-width:.26478"/>
  </g>
  <rect x="-327.89" y="-199.4" width="128.55" height="107.13" rx="1.3229" ry=".81594" style="opacity:0;paint-order:markers fill stroke;stroke-width:16.245"/>
  <ellipse cx="-207.53" cy="-176.09" rx="47.262" ry="42.221" style="fill-rule:evenodd;fill:#f00;stroke-width:.26458"/>
  <g transform="matrix(.039062 0 0 .039062 237.05 -149.13)">
   <g transform="matrix(1.0008 0 0 1.0008 -76.598 -222.89)" clip-path="url(#clipPath1777)">
    <ellipse transform="scale(-1)" cx="-356.69" cy="-101.29" rx=".19012" ry=".19012" style="fill-rule:evenodd;fill:#000016"/>
    <ellipse transform="scale(-1)" cx="-356.69" cy="-100.91" rx=".19012" ry=".19012" style="fill-rule:evenodd;fill:#203012"/>
    <ellipse transform="scale(-1)" cx="-356.12" cy="-101.1" rx=".38023" ry=".38023" style="fill-rule:evenodd;fill:#00012c"/>
    <ellipse transform="scale(-1)" cx="-356.31" cy="-100.15" rx=".57035" ry=".57035" style="fill-rule:evenodd;fill:#406124"/>
    <ellipse transform="scale(-1)" cx="-354.79" cy="-100.53" rx=".95059" ry=".95059" style="fill-rule:evenodd;fill:#000241"/>
    <ellipse transform="scale(-1)" cx="-355.36" cy="-98.062" rx="1.5209" ry="1.5209" style="fill-rule:evenodd;fill:#619136"/>
    <ellipse transform="scale(-1)" cx="-351.37" cy="-99.013" rx="2.4715" ry="2.4715" style="fill-rule:evenodd;fill:#a1f7c7"/>
    <ellipse transform="scale(-1)" cx="-352.89" cy="-92.549" rx="3.9925" ry="3.9925" style="fill-rule:evenodd;fill:#000357"/>
    <ellipse transform="scale(-1)" cx="-342.43" cy="-95.021" rx="6.464" ry="6.464" style="fill-rule:evenodd;fill:#81c248"/>
    <ellipse transform="scale(-1)" cx="-346.42" cy="-78.1" rx="10.456" ry="10.456" style="fill-rule:evenodd;fill:#00046d"/>
    <path d="m323.04 101.01a16.92 16.92 0 0 0 12.928-16.443 16.92 16.92 0 0 0 0-0.0024 16.92 16.92 0 0 0-12.928-16.44z" style="fill-rule:evenodd;fill:#a1f390"/>
    <g transform="rotate(90 356.88 101.48)">
     <ellipse transform="scale(-1)" cx="-356.69" cy="-101.29" rx=".19012" ry=".19012" style="fill-rule:evenodd;fill:#000016"/>
     <ellipse transform="scale(-1)" cx="-356.69" cy="-100.91" rx=".19012" ry=".19012" style="fill-rule:evenodd;fill:#203012"/>
     <ellipse transform="scale(-1)" cx="-356.12" cy="-101.1" rx=".38023" ry=".38023" style="fill-rule:evenodd;fill:#00012c"/>
     <ellipse transform="scale(-1)" cx="-356.31" cy="-100.15" rx=".57035" ry=".57035" style="fill-rule:evenodd;fill:#406124"/>
     <ellipse transform="scale(-1)" cx="-354.79" cy="-100.53" rx=".95059" ry=".95059" style="fill-rule:evenodd;fill:#000241"/>
     <ellipse transform="scale(-1)" cx="-355.36" cy="-98.062" rx="1.5209" ry="1.5209" style="fill-rule:evenodd;fill:#619136"/>
     <ellipse transform="scale(-1)" cx="-351.37" cy="-99.013" rx="2.4715" ry="2.4715" style="fill-rule:evenodd;fill:#a1f7c7"/>
     <ellipse transform="scale(-1)" cx="-352.89" cy="-92.549" rx="3.9925" ry="3.9925" style="fill-rule:evenodd;fill:#000357"/>
     <ellipse transform="scale(-1)" cx="-342.43" cy="-95.021" rx="6.464" ry="6.464" style="fill-rule:evenodd;fill:#81c248"/>
     <ellipse transform="scale(-1)" cx="-346.42" cy="-78.1" rx="10.456" ry="10.456" style="fill-rule:evenodd;fill:#00046d"/>
     <path d="m323.04 101.01a16.92 16.92 0 0 0 12.928-16.443 16.92 16.92 0 0 0 0-0.0024 16.92 16.92 0 0 0-12.928-16.44z" style="fill-rule:evenodd;fill:#a1f390"/>
    </g>
    <g transform="rotate(180 356.88 101.48)">
     <ellipse transform="scale(-1)" cx="-356.69" cy="-101.29" rx=".19012" ry=".19012" style="fill-rule:evenodd;fill:#000016"/>
     <ellipse transform="scale(-1)" cx="-356.69" cy="-100.91" rx=".19012" ry=".19012" style="fill-rule:evenodd;fill:#203012"/>
     <ellipse transform="scale(-1)" cx="-356.12" cy="-101.1" rx=".38023" ry=".38023" style="fill-rule:evenodd;fill:#00012c"/>
     <ellipse transform="scale(-1)" cx="-356.31" cy="-100.15" rx=".57035" ry=".57035" style="fill-rule:evenodd;fill:#406124"/>
     <ellipse transform="scale(-1)" cx="-354.79" cy="-100.53" rx=".95059" ry=".95059" style="fill-rule:evenodd;fill:#000241"/>
     <ellipse transform="scale(-1)" cx="-355.36" cy="-98.062" rx="1.5209" ry="1.5209" style="fill-rule:evenodd;fill:#619136"/>
     <ellipse transform="scale(-1)" cx="-351.37" cy="-99.013" rx="2.4715" ry="2.4715" style="fill-rule:evenodd;fill:#a1f7c7"/>
     <ellipse transform="scale(-1)" cx="-352.89" cy="-92.549" rx="3.9925" ry="3.9925" style="fill-rule:evenodd;fill:#000357"/>
     <ellipse transform="scale(-1)" cx="-342.43" cy="-95.021" rx="6.464" ry="6.464" style="fill-rule:evenodd;fill:#81c248"/>
     <ellipse transform="scale(-1)" cx="-346.42" cy="-78.1" rx="10.456" ry="10.456" style="fill-rule:evenodd;fill:#00046d"/>
     <path d="m323.04 101.01a16.92 16.92 0 0 0 12.928-16.443 16.92 16.92 0 0 0 0-0.0024 16.92 16.92 0 0 0-12.928-16.44z" style="fill-rule:evenodd;fill:#a1f390"/>
    </g>
    <g transform="rotate(-90 356.88 101.48)">
     <ellipse transform="scale(-1)" cx="-356.69" cy="-101.29" rx=".19012" ry=".19012" style="fill-rule:evenodd;fill:#000016"/>
     <ellipse transform="scale(-1)" cx="-356.69" cy="-100.91" rx=".19012" ry=".19012" style="fill-rule:evenodd;fill:#203012"/>
     <ellipse transform="scale(-1)" cx="-356.12" cy="-101.1" rx=".38023" ry=".38023" style="fill-rule:evenodd;fill:#00012c"/>
     <ellipse transform="scale(-1)" cx="-356.31" cy="-100.15" rx=".57035" ry=".57035" style="fill-rule:evenodd;fill:#406124"/>
     <ellipse transform="scale(-1)" cx="-354.79" cy="-100.53" rx=".95059" ry=".95059" style="fill-rule:evenodd;fill:#000241"/>
     <ellipse transform="scale(-1)" cx="-355.36" cy="-98.062" rx="1.5209" ry="1.5209" style="fill-rule:evenodd;fill:#619136"/>
     <ellipse transform="scale(-1)" cx="-351.37" cy="-99.013" rx="2.4715" ry="2.4715" style="fill-rule:evenodd;fill:#a1f7c7"/>
     <ellipse transform="scale(-1)" cx="-352.89" cy="-92.549" rx="3.9925" ry="3.9925" style="fill-rule:evenodd;fill:#000357"/>
     <ellipse transform="scale(-1)" cx="-342.43" cy="-95.021" rx="6.464" ry="6.464" style="fill-rule:evenodd;fill:#81c248"/>
     <ellipse transform="scale(-1)" cx="-346.42" cy="-78.1" rx="10.456" ry="10.456" style="fill-rule:evenodd;fill:#00046d"/>
     <path d="m323.04 101.01a16.92 16.92 0 0 0 12.928-16.443 16.92 16.92 0 0 0 0-0.0024 16.92 16.92 0 0 0-12.928-16.44z" style="fill-rule:evenodd;fill:#a1f390"/>
    </g>
   </g>
   <g transform="translate(249.81 -178.87)">
    <text transform="scale(.99986 1.0001)" x="81.424545" y="59.299034" style="fill:#00046d;font-family:'Lucida Console';font-size:52.155px;letter-spacing:2.8797px;line-height:0;stroke-width:.26475;word-spacing:35.911px" xml:space="preserve"><tspan x="81.424545" y="59.299034" style="fill:#00046d;font-family:'Bauhaus 93';letter-spacing:0px;line-height:40.25;stroke-width:.26475">Prakhar</tspan></text>
    <path d="m84.189 90.998v-14.973q0-2.7846 1.689-4.5497 1.689-1.7651 4.3823-1.7651 3.1955 0 4.9149 2.9368 1.0499-1.5825 2.252-2.252 1.2021-0.68474 2.9672-0.68474 2.7998 0 4.291 1.7651 1.4912 1.7651 1.4912 5.0823v14.44h-6.1779v-13.512q0-1.0043-0.16738-1.3238-0.15216-0.33476-0.63909-0.33476-0.91299 0-0.91299 1.5521v13.619h-6.1779v-13.512q0-0.98907-0.16738-1.3238-0.16739-0.33476-0.65432-0.33476-0.91298 0-0.91298 1.6586v13.512z" style="fill:#a1f390;stroke-width:.26478"/>
    <path d="m129.62 85.307v5.8888q-0.69996 0.12173-1.2782 0.12173-3.4237 0-5.7062-2.252t-2.2825-5.6453q0-3.302 2.2977-5.5996 2.3129-2.2977 5.6149-2.2977 3.6824 0 5.7975 2.1607 2.1303 2.1455 2.1303 5.8735v7.4408h-5.6909v-7.03q0-1.2021-0.59345-1.9173-0.57822-0.71518-1.5673-0.71518-0.89778 0-1.5521 0.65431-0.6543 0.6543-0.6543 1.5521 0 0.94342 0.59344 1.5521 0.59344 0.60866 1.5064 0.60866 0.7456 0 1.3847-0.39563z" style="fill:#a1f390;stroke-width:.26478"/>
    <path d="m161.33 76.04v5.9953q-1.2021 0-1.6586 0.4565-0.44128 0.44127-0.56301 1.7651-0.39563 4.3976-3.4085 6.2083-1.5977 0.94342-4.5345 0.94342h-0.79125v-6.0257h0.25868q1.3695 0 1.9477-0.56302 0.59344-0.57822 0.68474-2.0086 0.12173-2.3281 0.42606-3.2715 0.31955-0.94342 1.2782-1.8716 1.6738-1.6282 4.641-1.6282z" style="fill:#a1f390;stroke-width:.26478"/>
    <path d="m181.19 70.227v5.8127h2.5564v6.0105h-2.5564q0 1.8108 0.563 2.4955 0.57823 0.68474 2.0999 0.68474v5.9801q-0.44127 0.01521-0.6543 0.01521-1.9325 0-3.652-0.89777-1.7042-0.89777-2.739-2.4346-1.3086-1.9629-1.3086-5.204v-12.462z" style="fill:#a1f390;stroke-width:.26478"/>
    <path d="m207.3 85.307v5.8888q-0.69996 0.12173-1.2782 0.12173-3.4237 0-5.7062-2.252-2.2825-2.252-2.2825-5.6453 0-3.302 2.2977-5.5996 2.3129-2.2977 5.6149-2.2977 3.6824 0 5.7975 2.1607 2.1303 2.1455 2.1303 5.8735v7.4408h-5.6909v-7.03q0-1.2021-0.59345-1.9173-0.57822-0.71518-1.5673-0.71518-0.89776 0-1.5521 0.65431-0.65431 0.6543-0.65431 1.5521 0 0.94342 0.59344 1.5521 0.59344 0.60866 1.5064 0.60866 0.74561 0 1.3847-0.39563z" style="fill:#a1f390;stroke-width:.26478"/>
    <path d="m233.74 75.827v15.171h-5.691v-15.171zm-2.8303-6.7713q1.1564 0 1.9934 0.82168 0.85212 0.80647 0.85212 1.9173 0 1.1869-0.80647 1.9477-0.79125 0.76082-2.039 0.76082t-2.0542-0.76082q-0.79125-0.76082-0.79125-1.9477 0-1.1108 0.8369-1.9173 0.85212-0.82168 2.0086-0.82168z" style="fill:#a1f390;stroke-width:.26478"/>
    <path d="m261.46 90.998h-5.691v-8.5669q0-1.3086-1.0804-1.3086-1.0652 0-1.0652 1.3086v8.5669h-5.691v-8.4603q0-2.9672 1.9629-4.991 1.9629-2.039 4.8084-2.039 3.2563 0 5.2192 2.3585 1.5369 1.8412 1.5369 5.1279z" style="fill:#a1f390;stroke-width:.26478"/>
   </g>
  </g>
  <g transform="matrix(.039062 0 0 .039062 -91.298 -162.66)">
   <g transform="matrix(.76973 0 0 .76973 14.814 180.07)" clip-path="url(#clipPath2379)">
    <g transform="matrix(.45538 0 0 .45538 -12.657 -110.66)">
     <ellipse transform="scale(-1)" cx="-72.837" cy="107.11" rx=".5428" ry=".5428" style="fill-rule:evenodd;fill:#404040"/>
     <ellipse transform="scale(-1)" cx="-72.837" cy="108.19" rx=".5428" ry=".5428" style="fill-rule:evenodd;fill:#7f7f7f"/>
     <ellipse transform="scale(-1)" cx="-71.208" cy="107.65" rx="1.0856" ry="1.0856" style="fill-rule:evenodd;fill:#303030"/>
     <ellipse transform="scale(-1)" cx="-71.751" cy="110.36" rx="1.6284" ry="1.6284" style="fill-rule:evenodd;fill:#9f9f9f"/>
     <ellipse transform="scale(-1)" cx="-67.409" cy="109.28" rx="2.714" ry="2.714" style="fill-rule:evenodd;fill:#202020"/>
     <ellipse transform="scale(-1)" cx="-69.037" cy="116.34" rx="4.3424" ry="4.3424" style="fill-rule:evenodd;fill:#bfbfbf"/>
     <ellipse transform="scale(-1)" cx="-57.638" cy="113.62" rx="7.0564" ry="7.0564" style="fill-rule:evenodd;fill:#808080"/>
     <ellipse transform="scale(-1)" cx="-61.981" cy="132.08" rx="11.399" ry="11.399" style="fill-rule:evenodd;fill:#101010"/>
     <ellipse transform="scale(-1)" cx="-32.126" cy="125.02" rx="18.455" ry="18.455" style="fill-rule:evenodd;fill:#dfdfdf"/>
     <ellipse transform="scale(-1)" cx="-43.525" cy="173.33" rx="29.854" ry="29.854" style="fill-rule:evenodd"/>
     <path d="m-23.239-107.93a48.309 48.309 0 0 0 36.911-46.945 48.309 48.309 0 0 0 0-7e-3 48.309 48.309 0 0 0-36.911-46.938z" style="fill-rule:evenodd;fill:#fff"/>
    </g>
    <g transform="matrix(0 .45538 -.45538 0 -27.769 -192.6)">
     <ellipse transform="scale(-1)" cx="-72.837" cy="107.11" rx=".5428" ry=".5428" style="fill-rule:evenodd;fill:#404040"/>
     <ellipse transform="scale(-1)" cx="-72.837" cy="108.19" rx=".5428" ry=".5428" style="fill-rule:evenodd;fill:#7f7f7f"/>
     <ellipse transform="scale(-1)" cx="-71.208" cy="107.65" rx="1.0856" ry="1.0856" style="fill-rule:evenodd;fill:#303030"/>
     <ellipse transform="scale(-1)" cx="-71.751" cy="110.36" rx="1.6284" ry="1.6284" style="fill-rule:evenodd;fill:#9f9f9f"/>
     <ellipse transform="scale(-1)" cx="-67.409" cy="109.28" rx="2.714" ry="2.714" style="fill-rule:evenodd;fill:#202020"/>
     <ellipse transform="scale(-1)" cx="-69.037" cy="116.34" rx="4.3424" ry="4.3424" style="fill-rule:evenodd;fill:#bfbfbf"/>
     <ellipse transform="scale(-1)" cx="-57.638" cy="113.62" rx="7.0564" ry="7.0564" style="fill-rule:evenodd;fill:#808080"/>
     <ellipse transform="scale(-1)" cx="-61.981" cy="132.08" rx="11.399" ry="11.399" style="fill-rule:evenodd;fill:#101010"/>
     <ellipse transform="scale(-1)" cx="-32.126" cy="125.02" rx="18.455" ry="18.455" style="fill-rule:evenodd;fill:#dfdfdf"/>
     <ellipse transform="scale(-1)" cx="-43.525" cy="173.33" rx="29.854" ry="29.854" style="fill-rule:evenodd"/>
     <path d="m-23.239-107.93a48.309 48.309 0 0 0 36.911-46.945 48.309 48.309 0 0 0 0-7e-3 48.309 48.309 0 0 0-36.911-46.938z" style="fill-rule:evenodd;fill:#fff"/>
    </g>
    <g transform="matrix(-.45538 0 0 -.45538 54.174 -207.71)">
     <ellipse transform="scale(-1)" cx="-72.837" cy="107.11" rx=".5428" ry=".5428" style="fill-rule:evenodd;fill:#404040"/>
     <ellipse transform="scale(-1)" cx="-72.837" cy="108.19" rx=".5428" ry=".5428" style="fill-rule:evenodd;fill:#7f7f7f"/>
     <ellipse transform="scale(-1)" cx="-71.208" cy="107.65" rx="1.0856" ry="1.0856" style="fill-rule:evenodd;fill:#303030"/>
     <ellipse transform="scale(-1)" cx="-71.751" cy="110.36" rx="1.6284" ry="1.6284" style="fill-rule:evenodd;fill:#9f9f9f"/>
     <ellipse transform="scale(-1)" cx="-67.409" cy="109.28" rx="2.714" ry="2.714" style="fill-rule:evenodd;fill:#202020"/>
     <ellipse transform="scale(-1)" cx="-69.037" cy="116.34" rx="4.3424" ry="4.3424" style="fill-rule:evenodd;fill:#bfbfbf"/>
     <ellipse transform="scale(-1)" cx="-57.638" cy="113.62" rx="7.0564" ry="7.0564" style="fill-rule:evenodd;fill:#808080"/>
     <ellipse transform="scale(-1)" cx="-61.981" cy="132.08" rx="11.399" ry="11.399" style="fill-rule:evenodd;fill:#101010"/>
     <ellipse transform="scale(-1)" cx="-32.126" cy="125.02" rx="18.455" ry="18.455" style="fill-rule:evenodd;fill:#dfdfdf"/>
     <ellipse transform="scale(-1)" cx="-43.525" cy="173.33" rx="29.854" ry="29.854" style="fill-rule:evenodd"/>
     <path d="m-23.239-107.93a48.309 48.309 0 0 0 36.911-46.945 48.309 48.309 0 0 0 0-7e-3 48.309 48.309 0 0 0-36.911-46.938z" style="fill-rule:evenodd;fill:#fff"/>
    </g>
    <g transform="matrix(0 -.45538 .45538 0 69.286 -125.77)">
     <ellipse transform="scale(-1)" cx="-72.837" cy="107.11" rx=".5428" ry=".5428" style="fill-rule:evenodd;fill:#404040"/>
     <ellipse transform="scale(-1)" cx="-72.837" cy="108.19" rx=".5428" ry=".5428" style="fill-rule:evenodd;fill:#7f7f7f"/>
     <ellipse transform="scale(-1)" cx="-71.208" cy="107.65" rx="1.0856" ry="1.0856" style="fill-rule:evenodd;fill:#303030"/>
     <ellipse transform="scale(-1)" cx="-71.751" cy="110.36" rx="1.6284" ry="1.6284" style="fill-rule:evenodd;fill:#9f9f9f"/>
     <ellipse transform="scale(-1)" cx="-67.409" cy="109.28" rx="2.714" ry="2.714" style="fill-rule:evenodd;fill:#202020"/>
     <ellipse transform="scale(-1)" cx="-69.037" cy="116.34" rx="4.3424" ry="4.3424" style="fill-rule:evenodd;fill:#bfbfbf"/>
     <ellipse transform="scale(-1)" cx="-57.638" cy="113.62" rx="7.0564" ry="7.0564" style="fill-rule:evenodd;fill:#808080"/>
     <ellipse transform="scale(-1)" cx="-61.981" cy="132.08" rx="11.399" ry="11.399" style="fill-rule:evenodd;fill:#101010"/>
     <ellipse transform="scale(-1)" cx="-32.126" cy="125.02" rx="18.455" ry="18.455" style="fill-rule:evenodd;fill:#dfdfdf"/>
     <ellipse transform="scale(-1)" cx="-43.525" cy="173.33" rx="29.854" ry="29.854" style="fill-rule:evenodd"/>
     <path d="m-23.239-107.93a48.309 48.309 0 0 0 36.911-46.945 48.309 48.309 0 0 0 0-7e-3 48.309 48.309 0 0 0-36.911-46.938z" style="fill-rule:evenodd;fill:#fff"/>
    </g>
   </g>
   <text transform="scale(.99986 1.0001)" x="81.474281" y="59.299034" style="fill:#000000;font-family:'Lucida Console';font-size:52.155px;letter-spacing:2.8797px;line-height:0;stroke-width:.26475;word-spacing:35.911px" xml:space="preserve"><tspan x="81.474281" y="59.299034" style="fill:#000000;font-family:'Bauhaus 93';letter-spacing:0px;line-height:40.25;stroke-width:.26475">Prakhar</tspan></text>
   <g transform="translate(.049733)" style="fill:#fff">
    <path d="m84.189 90.998v-14.973q0-2.7846 1.689-4.5497 1.689-1.7651 4.3823-1.7651 3.1955 0 4.9149 2.9368 1.0499-1.5825 2.252-2.252 1.2021-0.68474 2.9672-0.68474 2.7998 0 4.291 1.7651 1.4912 1.7651 1.4912 5.0823v14.44h-6.1779v-13.512q0-1.0043-0.16738-1.3238-0.15216-0.33476-0.63909-0.33476-0.91299 0-0.91299 1.5521v13.619h-6.1779v-13.512q0-0.98907-0.16738-1.3238-0.16739-0.33476-0.65432-0.33476-0.91298 0-0.91298 1.6586v13.512z" style="fill:#fff;stroke-width:.26478"/>
    <path d="m129.62 85.307v5.8888q-0.69996 0.12173-1.2782 0.12173-3.4237 0-5.7062-2.252t-2.2825-5.6453q0-3.302 2.2977-5.5996 2.3129-2.2977 5.6149-2.2977 3.6824 0 5.7975 2.1607 2.1303 2.1455 2.1303 5.8735v7.4408h-5.6909v-7.03q0-1.2021-0.59345-1.9173-0.57822-0.71518-1.5673-0.71518-0.89778 0-1.5521 0.65431-0.6543 0.6543-0.6543 1.5521 0 0.94342 0.59344 1.5521 0.59344 0.60866 1.5064 0.60866 0.7456 0 1.3847-0.39563z" style="fill:#fff;stroke-width:.26478"/>
    <path d="m161.33 76.04v5.9953q-1.2021 0-1.6586 0.4565-0.44128 0.44127-0.56301 1.7651-0.39563 4.3976-3.4085 6.2083-1.5977 0.94342-4.5345 0.94342h-0.79125v-6.0257h0.25868q1.3695 0 1.9477-0.56302 0.59344-0.57822 0.68474-2.0086 0.12173-2.3281 0.42606-3.2715 0.31955-0.94342 1.2782-1.8716 1.6738-1.6282 4.641-1.6282z" style="fill:#fff;stroke-width:.26478"/>
    <path d="m181.19 70.227v5.8127h2.5564v6.0105h-2.5564q0 1.8108 0.563 2.4955 0.57823 0.68474 2.0999 0.68474v5.9801q-0.44127 0.01521-0.6543 0.01521-1.9325 0-3.652-0.89777-1.7042-0.89777-2.739-2.4346-1.3086-1.9629-1.3086-5.204v-12.462z" style="fill:#fff;stroke-width:.26478"/>
    <path d="m207.3 85.307v5.8888q-0.69996 0.12173-1.2782 0.12173-3.4237 0-5.7062-2.252-2.2825-2.252-2.2825-5.6453 0-3.302 2.2977-5.5996 2.3129-2.2977 5.6149-2.2977 3.6824 0 5.7975 2.1607 2.1303 2.1455 2.1303 5.8735v7.4408h-5.6909v-7.03q0-1.2021-0.59345-1.9173-0.57822-0.71518-1.5673-0.71518-0.89776 0-1.5521 0.65431-0.65431 0.6543-0.65431 1.5521 0 0.94342 0.59344 1.5521 0.59344 0.60866 1.5064 0.60866 0.74561 0 1.3847-0.39563z" style="fill:#fff;stroke-width:.26478"/>
    <path d="m233.74 75.827v15.171h-5.691v-15.171zm-2.8303-6.7713q1.1564 0 1.9934 0.82168 0.85212 0.80647 0.85212 1.9173 0 1.1869-0.80647 1.9477-0.79125 0.76082-2.039 0.76082t-2.0542-0.76082q-0.79125-0.76082-0.79125-1.9477 0-1.1108 0.8369-1.9173 0.85212-0.82168 2.0086-0.82168z" style="fill:#fff;stroke-width:.26478"/>
    <path d="m261.46 90.998h-5.691v-8.5669q0-1.3086-1.0804-1.3086-1.0652 0-1.0652 1.3086v8.5669h-5.691v-8.4603q0-2.9672 1.9629-4.991 1.9629-2.039 4.8084-2.039 3.2563 0 5.2192 2.3585 1.5369 1.8412 1.5369 5.1279z" style="fill:#fff;stroke-width:.26478"/>
   </g>
  </g>
 </g>
</svg>
